<svg xmlns="http://www.w3.org/2000/svg" width="804.851" height="257" viewBox="0 0 804.851 257">
  <g id="Bars" transform="translate(-0.08 0.481)">
    <g id="Line" transform="translate(21.534 7.012)" opacity="0.5">
      <path id="Line-2" data-name="Line" d="M1,.5H783.9" transform="translate(-1 216.465)" fill="#242d3b" stroke="#242d3b" stroke-linecap="square" stroke-miterlimit="10" stroke-width="1"/>
      <path id="Line-3" data-name="Line" d="M1,.5H783.9" transform="translate(-1 182.8)" fill="#242d3b" stroke="#242d3b" stroke-linecap="square" stroke-miterlimit="10" stroke-width="1"/>
      <path id="Line_Copy" data-name="Line Copy" d="M1,.5H783.9" transform="translate(-1 152.267)" fill="#242d3b" stroke="#242d3b" stroke-linecap="square" stroke-miterlimit="10" stroke-width="1"/>
      <path id="Line_Copy_2" data-name="Line Copy 2" d="M1,.5H783.9" transform="translate(-1 121.734)" fill="#242d3b" stroke="#242d3b" stroke-linecap="square" stroke-miterlimit="10" stroke-width="1"/>
      <path id="Line_Copy_3" data-name="Line Copy 3" d="M1,.5H783.9" transform="translate(-1 91.201)" fill="#242d3b" stroke="#242d3b" stroke-linecap="square" stroke-miterlimit="10" stroke-width="1"/>
      <path id="Line_Copy_4" data-name="Line Copy 4" d="M1,.5H783.9" transform="translate(-1 60.668)" fill="#242d3b" stroke="#242d3b" stroke-linecap="square" stroke-miterlimit="10" stroke-width="1"/>
      <path id="Line_Copy_5" data-name="Line Copy 5" d="M1,.5H783.9" transform="translate(-1 30.135)" fill="#242d3b" stroke="#242d3b" stroke-linecap="square" stroke-miterlimit="10" stroke-width="1"/>
      <path id="Line_Copy_6" data-name="Line Copy 6" d="M1,.5H783.9" transform="translate(-1 -0.5)" fill="#242d3b" stroke="#242d3b" stroke-linecap="square" stroke-miterlimit="10" stroke-width="1"/>
    </g>
    <g id="Order_Number" data-name="Order Number" transform="translate(0 0)">
      <text id="_0" data-name="0" transform="translate(15.08 223.519)" fill="#fff" font-size="9" font-family="SegoeUI, Segoe UI"><tspan x="0" y="0">0</tspan></text>
      <text id="_100" data-name="100" transform="translate(5.08 192.519)" fill="#fff" font-size="9" font-family="SegoeUI, Segoe UI"><tspan x="0" y="0">100</tspan></text>
      <text id="_200" data-name="200" transform="translate(4.08 162.519)" fill="#fff" font-size="9" font-family="SegoeUI, Segoe UI"><tspan x="0" y="0">200</tspan></text>
      <text id="_400" data-name="400" transform="translate(4.08 131.519)" fill="#fff" font-size="9" font-family="SegoeUI, Segoe UI"><tspan x="0" y="0">400</tspan></text>
      <text id="_600" data-name="600" transform="translate(4.08 100.519)" fill="#fff" font-size="9" font-family="SegoeUI, Segoe UI"><tspan x="0" y="0">600</tspan></text>
      <text id="_800" data-name="800" transform="translate(4.08 70.519)" fill="#fff" font-size="9" font-family="SegoeUI, Segoe UI"><tspan x="0" y="0">800</tspan></text>
      <text id="_1000" data-name="1000" transform="translate(0.08 39.519)" fill="#fff" font-size="9" font-family="SegoeUI, Segoe UI"><tspan x="0" y="0">1000</tspan></text>
      <text id="_1200" data-name="1200" transform="translate(1.08 9.519)" fill="#fff" font-size="9" font-family="SegoeUI, Segoe UI"><tspan x="0" y="0">1200</tspan></text>
    </g>
    <g id="Month" transform="translate(69.115 12.203)">
      <g id="Jun" transform="translate(660.965 98.645)">
        <text id="Jun-2" data-name="Jun" transform="translate(9 142.092)" fill="#fff" font-size="12" font-family="SegoeUI, Segoe UI"><tspan x="-11.906" y="0">RMF</tspan></text>
        <rect id="Bar_Copy_5" data-name="Bar Copy 5" width="15" height="112.445" rx="2" transform="translate(-7.609 0)" fill="#f93c65"/>
        <rect id="Bar_Copy_5-2" data-name="Bar Copy 5" width="15" height="69.386" rx="2" transform="translate(11.391 43.059)" fill="#00b69b"/>
      </g>
      <g id="May" transform="translate(529.665 43.842)">
        <text id="May-2" data-name="May" transform="translate(12 196.895)" fill="#fff" font-size="12" font-family="SegoeUI, Segoe UI"><tspan x="-16.547" y="0">HIPAA</tspan></text>
        <rect id="Bar_Copy_4" data-name="Bar Copy 4" width="15" height="167.248" rx="2" transform="translate(-5.043 0)" fill="#f93c65"/>
        <rect id="Bar_Copy_4-2" data-name="Bar Copy 4" width="15" height="117.143" rx="2" transform="translate(13.957 50.105)" fill="#00b69b"/>
      </g>
      <g id="Apr" transform="translate(385.415 72.027)">
        <text id="Apr-2" data-name="Apr" transform="translate(27 168.711)" fill="#fff" font-size="12" font-family="SegoeUI, Segoe UI"><tspan x="-35.865" y="0">NIST 800-172</tspan></text>
        <rect id="Bar_Copy_3" data-name="Bar Copy 3" width="15" height="139.064" rx="2" transform="translate(10.391 0)" fill="#f93c65"/>
        <rect id="Bar_Copy_3-2" data-name="Bar Copy 3" width="15" height="85.044" rx="2" transform="translate(29.391 54.02)" fill="#00b69b"/>
      </g>
      <g id="Mar" transform="translate(248.987 0)">
        <text id="Mar-2" data-name="Mar" transform="translate(27 240.737)" fill="#fff" font-size="12" font-family="SegoeUI, Segoe UI"><tspan x="-35.865" y="0">NIST 800-171</tspan></text>
        <rect id="Bar_Copy_2" data-name="Bar Copy 2" width="15" height="211.09" rx="2" transform="translate(9.957)" fill="#f93c65"/>
        <rect id="Bar_Copy_2-2" data-name="Bar Copy 2" width="15" height="176.643" rx="2" transform="translate(28.957 34.447)" fill="#00b69b"/>
      </g>
      <g id="Feb" transform="translate(120.674 42.276)">
        <text id="Feb-2" data-name="Feb" transform="translate(20 198.461)" fill="#fff" font-size="12" font-family="SegoeUI, Segoe UI"><tspan x="-27.123" y="0">ISO 27001</tspan></text>
        <rect id="Bar_Copy" data-name="Bar Copy" width="15" height="168.814" rx="2" transform="translate(3.391 0)" fill="#f93c65"/>
        <rect id="Bar_Copy-2" data-name="Bar Copy" width="15" height="111.663" rx="2" transform="translate(22.391 57.151)" fill="#00b69b"/>
      </g>
      <g id="Jan" transform="translate(-16.035 12.526)">
        <text id="Jan-2" data-name="Jan" transform="translate(24 228.789)" fill="#fff" font-size="12" font-family="SegoeUI, Segoe UI"><tspan x="-32.631" y="0">NIST 800-53</tspan></text>
        <rect id="Bar" width="15" height="198.564" rx="2" transform="translate(7.211)" fill="#f93c65"/>
        <rect id="Bar-2" data-name="Bar" width="15" height="188.15" rx="2" transform="translate(26.211 10.415)" fill="#00b69b"/>
      </g>
    </g>
  </g>
</svg>
