<svg xmlns="http://www.w3.org/2000/svg" xmlns:xlink="http://www.w3.org/1999/xlink" width="207.574" height="207.574" viewBox="0 0 207.574 207.574">
  <defs>
    <filter id="pink_stuff" x="0" y="0" width="207.574" height="207.574" filterUnits="userSpaceOnUse">
      <feOffset dy="8" input="SourceAlpha"/>
      <feGaussianBlur stdDeviation="8" result="blur"/>
      <feFlood flood-color="#00b69b" flood-opacity="0.051"/>
      <feComposite operator="in" in2="blur"/>
      <feComposite in="SourceGraphic"/>
    </filter>
  </defs>
  <g id="Group_500" data-name="Group 500" transform="translate(24 16)">
    <text id="_93_" data-name="93%" transform="translate(47 56)" fill="#fff" font-size="26" font-family="NunitoSans-Black, Nunito Sans" font-weight="800" letter-spacing="-0.001em"><tspan x="8.394" y="26">93%</tspan></text>
    <g id="Group_499" data-name="Group 499">
      <g id="grey_stuff" data-name="grey stuff" fill="none" stroke-linecap="square" stroke-dasharray="866.64">
        <path d="M79.787,0A79.775,79.775,0,1,1,32.26,15.694,79.787,79.787,0,0,1,79.787,0Z" stroke="none"/>
        <path d="M 79.78723907470703 -1.52587890625e-05 C 123.8524932861328 -1.52587890625e-05 159.5744934082031 35.72194671630859 159.5744934082031 79.78723907470703 C 159.5744934082031 96.84044647216797 154.2244873046875 112.6440734863281 145.0312042236328 125.7250671386719 C 130.6762390136719 146.1511993408203 106.7993240356445 159.5744934082031 79.78723907470703 159.5744934082031 C 35.72194671630859 159.5744934082031 -1.52587890625e-05 123.8524932861328 -1.52587890625e-05 79.78723907470703 C -1.52587890625e-05 53.61265563964844 12.60382080078125 30.38182067871094 32.26015472412109 15.69369506835938 C 45.38119506835938 5.88836669921875 61.89657592773438 -1.52587890625e-05 79.78723907470703 -1.52587890625e-05 Z M 79.78723907470703 139.5744934082031 C 99.23977661132813 139.5744934082031 117.5129089355469 130.0982055664063 128.6680755615234 114.2251129150391 C 135.8031158447266 104.0727844238281 139.5744934082031 92.16436767578125 139.5744934082031 79.78723907470703 C 139.5744934082031 46.82044982910156 112.7540283203125 19.99998474121094 79.78723907470703 19.99998474121094 L 79.78723907470703 19.99998474121094 C 66.78224182128906 19.99998474121094 54.48761749267578 24.05078125 44.23190307617188 31.71486663818359 C 28.83219909667969 43.22223663330078 19.99998474121094 60.74394989013672 19.99998474121094 79.78723907470703 C 19.99998474121094 112.7540283203125 46.82044982910156 139.5744934082031 79.78723907470703 139.5744934082031 Z" stroke="none" fill="#f93c65"/>
      </g>
      <g transform="matrix(1, 0, 0, 1, -24, -16)" filter="url(#pink_stuff)">
        <g id="pink_stuff-2" data-name="pink stuff" transform="translate(24 16)" fill="none" stroke-linecap="square" stroke-dasharray="433.32 999999">
          <path d="M79.787,0A79.787,79.787,0,1,1,0,79.787,79.787,79.787,0,0,1,79.787,0Z" stroke="none"/>
          <path d="M 79.78723907470703 -1.52587890625e-05 C 123.8524932861328 -1.52587890625e-05 159.5744934082031 35.72194671630859 159.5744934082031 79.78723907470703 C 159.5744934082031 123.8524932861328 123.8524932861328 159.5744934082031 79.78723907470703 159.5744934082031 C 35.72194671630859 159.5744934082031 -1.52587890625e-05 123.8524932861328 -1.52587890625e-05 79.78723907470703 C -1.52587890625e-05 79.77648162841797 -1.52587890625e-05 79.76645660400391 0 79.75569915771484 C 0 79.75447845458984 0 79.75032043457031 0 79.74909973144531 C 0 79.74102783203125 0 79.733642578125 1.52587890625e-05 79.72557830810547 C 1.52587890625e-05 79.72189331054688 1.52587890625e-05 79.71643829345703 3.0517578125e-05 79.71276092529297 C 3.0517578125e-05 79.70468902587891 3.0517578125e-05 79.70216369628906 4.57763671875e-05 79.69409942626953 C 4.57763671875e-05 79.68919372558594 4.57763671875e-05 79.68705749511719 6.103515625e-05 79.68215942382813 C 6.103515625e-05 79.67678070068359 7.62939453125e-05 79.66898345947266 9.1552734375e-05 79.66360473632813 C 9.1552734375e-05 79.65992736816406 0.0001068115234375 79.65337371826172 0.0001068115234375 79.64969635009766 C 0.0001220703125 79.64431762695313 0.0001220703125 79.63776397705078 0.0001373291015625 79.63239288330078 C 0.000152587890625 79.62748718261719 0.000152587890625 79.62394714355469 0.0001678466796875 79.61904144287109 C 0.0001678466796875 79.61366271972656 0.00018310546875 79.60677337646484 0.0001983642578125 79.60139465332031 C 0.000213623046875 79.59771728515625 0.0002288818359375 79.59151458740234 0.0002288818359375 79.58783721923828 C 0.000244140625 79.58246612548828 0.0002593994140625 79.5751953125 0.000274658203125 79.56982421875 C 0.0002899169921875 79.56491851806641 0.00030517578125 79.56196594238281 0.0003204345703125 79.55706787109375 C 0.000335693359375 79.55168914794922 0.0003509521484375 79.54476165771484 0.0003662109375 79.53938293457031 C 0.0003814697265625 79.53447723388672 0.000396728515625 79.53040313720703 0.0004119873046875 79.52550506591797 C 0.0004425048828125 79.51744079589844 0.000457763671875 79.51295471191406 0.0004730224609375 79.50489807128906 C 0.00048828125 79.50244140625 0.0005035400390625 79.49800872802734 0.000518798828125 79.49555206298828 C 0.0005340576171875 79.48749542236328 0.000579833984375 79.47749328613281 0.0006103515625 79.46943664550781 C 0.0006256103515625 79.46697998046875 0.0006256103515625 79.46663665771484 0.0006256103515625 79.46418762207031 C 0.00067138671875 79.45343780517578 0.0007171630859375 79.44355010986328 0.000762939453125 79.43280792236328 C 0.0007781982421875 79.43035888671875 0.0007781982421875 79.42953491210938 0.00079345703125 79.42708587646484 C 0.000823974609375 79.41902160644531 0.0008544921875 79.41100311279297 0.0009002685546875 79.40293884277344 C 0.0009307861328125 79.39681243896484 0.0009307861328125 79.39417266845703 0.0009613037109375 79.38804626464844 C 0.0009918212890625 79.38267517089844 0.0010223388671875 79.37724304199219 0.0010528564453125 79.37187194824219 C 0.001068115234375 79.36696624755859 0.0010986328125 79.36293029785156 0.0011138916015625 79.3580322265625 C 0.0011444091796875 79.35265350341797 0.001190185546875 79.345947265625 0.001220703125 79.340576171875 C 0.0012359619140625 79.33567810058594 0.0012664794921875 79.33247375488281 0.00128173828125 79.32757568359375 C 0.001312255859375 79.32220458984375 0.0013580322265625 79.314453125 0.0013885498046875 79.30907440185547 C 0.0014190673828125 79.30417633056641 0.0014495849609375 79.30072784423828 0.00146484375 79.29582214355469 C 0.0015106201171875 79.29045104980469 0.0015411376953125 79.28537750244141 0.0015716552734375 79.28000640869141 C 0.0016021728515625 79.27388000488281 0.0016326904296875 79.26938629150391 0.001678466796875 79.26326751708984 C 0.001708984375 79.25789642333984 0.001739501953125 79.25444030761719 0.00177001953125 79.24906921386719 C 0.001800537109375 79.24295043945313 0.0018310546875 79.23951721191406 0.0018768310546875 79.2333984375 C 0.0019073486328125 79.22802734375 0.0019378662109375 79.22282409667969 0.001983642578125 79.21745300292969 C 0.00201416015625 79.21255493164063 0.0020599365234375 79.20744323730469 0.0020904541015625 79.20254516601563 C 0.0021209716796875 79.19718170166016 0.002166748046875 79.19161224365234 0.0022125244140625 79.18624114990234 C 0.0022430419921875 79.18134307861328 0.0022735595703125 79.17644500732422 0.0023193359375 79.17154693603516 C 0.002349853515625 79.16617584228516 0.0023956298828125 79.16168212890625 0.0024261474609375 79.15631866455078 C 0.002471923828125 79.15142059326172 0.0025177001953125 79.1455078125 0.0025482177734375 79.14060974121094 C 0.0026397705078125 79.12986755371094 0.002716064453125 79.12129974365234 0.0027923583984375 79.11056518554688 C 0.0028228759765625 79.10811614990234 0.0028228759765625 79.10732269287109 0.0028533935546875 79.10487365722656 C 0.0029144287109375 79.09682464599609 0.00299072265625 79.08757781982422 0.0030670166015625 79.07952117919922 C 0.003082275390625 79.07707977294922 0.0031280517578125 79.07143402099609 0.0031585693359375 79.06898498535156 C 0.00323486328125 79.06093597412109 0.003265380859375 79.05666351318359 0.0033416748046875 79.04860687255859 C 0.0033721923828125 79.04493713378906 0.00341796875 79.03926086425781 0.0034637451171875 79.03559112548828 C 0.003509521484375 79.03022766113281 0.003570556640625 79.02399444580078 0.0036163330078125 79.01863098144531 C 0.003662109375 79.01373291015625 0.0037078857421875 79.00857543945313 0.003753662109375 79.00368499755859 C 0.003814697265625 78.99831390380859 0.003875732421875 78.99211120605469 0.0039215087890625 78.98674011230469 C 0.0039520263671875 78.98307037353516 0.0040130615234375 78.97792053222656 0.0040435791015625 78.97425079345703 C 0.0041046142578125 78.96888732910156 0.004180908203125 78.96049499511719 0.004241943359375 78.95513153076172 C 0.0042877197265625 78.95023345947266 0.0043182373046875 78.94817352294922 0.004364013671875 78.94327545166016 C 0.004425048828125 78.93791198730469 0.0045166015625 78.92880249023438 0.00457763671875 78.92343139648438 C 0.004608154296875 78.91976165771484 0.0046539306640625 78.91596221923828 0.0046844482421875 78.91229248046875 C 0.0047454833984375 78.90692901611328 0.0048370361328125 78.89885711669922 0.0048980712890625 78.89349365234375 C 0.00494384765625 78.88859558105469 0.004974365234375 78.88540649414063 0.005035400390625 78.88050842285156 C 0.005096435546875 78.87514495849609 0.005218505859375 78.86486053466797 0.005279541015625 78.8594970703125 C 0.00531005859375 78.85582733154297 0.0053253173828125 78.85443878173828 0.00537109375 78.85076904296875 C 0.005462646484375 78.84272003173828 0.0055389404296875 78.83631134033203 0.0056304931640625 78.82826232910156 C 0.00567626953125 78.82459259033203 0.005706787109375 78.82234191894531 0.0057525634765625 78.81867218017578 C 0.0059967041015625 78.79721069335938 0.0062255859375 78.77960205078125 0.0064849853515625 78.75815582275391 C 0.0065460205078125 78.75326538085938 0.006622314453125 78.74781036376953 0.006683349609375 78.742919921875 C 0.0067596435546875 78.73755645751953 0.0068206787109375 78.73186492919922 0.00689697265625 78.72650146484375 C 0.0069427490234375 78.72283172607422 0.0070037841796875 78.71791839599609 0.0070648193359375 78.71424865722656 C 0.0071563720703125 78.70620727539063 0.0072021484375 78.70323944091797 0.0073089599609375 78.69519805908203 C 0.007354736328125 78.6915283203125 0.007415771484375 78.68723297119141 0.0074615478515625 78.68356323242188 C 0.007537841796875 78.67819976806641 0.007659912109375 78.66917419433594 0.0077362060546875 78.663818359375 C 0.007781982421875 78.66014862060547 0.007843017578125 78.65593719482422 0.007904052734375 78.65226745605469 C 0.0079803466796875 78.64690399169922 0.008087158203125 78.63875579833984 0.0081634521484375 78.63339996337891 C 0.00823974609375 78.62850952148438 0.008270263671875 78.6256103515625 0.0083465576171875 78.62071990966797 C 0.0084228515625 78.6153564453125 0.008544921875 78.60725402832031 0.0086212158203125 78.60189056396484 C 0.0086669921875 78.59822845458984 0.0087432861328125 78.59317016601563 0.0088043212890625 78.58950042724609 C 0.008880615234375 78.58414459228516 0.0089874267578125 78.57680511474609 0.009063720703125 78.57144165039063 C 0.0091400146484375 78.56655120849609 0.009185791015625 78.56344604492188 0.0092620849609375 78.55855560302734 C 0.00933837890625 78.55319976806641 0.0094757080078125 78.54453277587891 0.009552001953125 78.53916931152344 C 0.009613037109375 78.53550720214844 0.009674072265625 78.53135681152344 0.009735107421875 78.52768707275391 C 0.009857177734375 78.5196533203125 0.0099029541015625 78.51698303222656 0.0100250244140625 78.50894165039063 C 0.0100860595703125 78.50527954101563 0.010162353515625 78.50009155273438 0.010223388671875 78.49642181396484 C 0.010345458984375 78.48838043212891 0.0104827880859375 78.4798583984375 0.0106201171875 78.47181701660156 C 0.010650634765625 78.46937561035156 0.0106658935546875 78.46852111816406 0.010711669921875 78.46607971191406 C 0.0108795166015625 78.45536041259766 0.0110321044921875 78.44599151611328 0.0112152099609375 78.43527221679688 C 0.011260986328125 78.43283081054688 0.0113067626953125 78.42942047119141 0.0113525390625 78.42697143554688 C 0.0114898681640625 78.41893768310547 0.0116119384765625 78.41158294677734 0.011749267578125 78.40354919433594 C 0.0117950439453125 78.40110778808594 0.0118255615234375 78.39864349365234 0.011871337890625 78.39619445800781 C 0.0120086669921875 78.38816070556641 0.0121307373046875 78.38088226318359 0.01226806640625 78.37284088134766 C 0.0123443603515625 78.36917877197266 0.01239013671875 78.36586761474609 0.0124664306640625 78.36220550537109 C 0.012603759765625 78.35416412353516 0.0126800537109375 78.34969329833984 0.0128173828125 78.34165954589844 C 0.0128936767578125 78.33798980712891 0.0129547119140625 78.33454895019531 0.0130157470703125 78.33088684082031 C 0.0131072998046875 78.32553100585938 0.013275146484375 78.31662750244141 0.01336669921875 78.31127166748047 C 0.013427734375 78.30760955810547 0.0135345458984375 78.30228424072266 0.0135955810546875 78.29862213134766 C 0.013702392578125 78.29326629638672 0.013824462890625 78.28607177734375 0.0139312744140625 78.28071594238281 C 0.0140228271484375 78.27583312988281 0.0140838623046875 78.27201843261719 0.0141754150390625 78.26713562011719 C 0.0142822265625 78.26177978515625 0.0143890380859375 78.25605010986328 0.014495849609375 78.25069427490234 C 0.01458740234375 78.24581146240234 0.014678955078125 78.24034881591797 0.0147857666015625 78.23546600341797 C 0.0148773193359375 78.23011016845703 0.014984130859375 78.22470092773438 0.0150909423828125 78.21934509277344 C 0.0151824951171875 78.21446228027344 0.0152587890625 78.21051788330078 0.015350341796875 78.20563507080078 C 0.0155029296875 78.19760131835938 0.01556396484375 78.19456481933594 0.0157318115234375 78.18653106689453 C 0.0157928466796875 78.18286895751953 0.0158843994140625 78.17852020263672 0.015960693359375 78.17485809326172 C 0.01611328125 78.16682434082031 0.0162811279296875 78.15879058837891 0.0164337158203125 78.1507568359375 C 0.0164642333984375 78.1495361328125 0.01654052734375 78.14572143554688 0.016571044921875 78.14450073242188 C 0.01678466796875 78.13379669189453 0.0169830322265625 78.12390899658203 0.0171966552734375 78.11320495605469 C 0.0172271728515625 78.11198425292969 0.017242431640625 78.11162567138672 0.0172576904296875 78.11040496826172 C 0.017486572265625 78.09970092773438 0.017608642578125 78.09321594238281 0.0178375244140625 78.08251190185547 C 0.0179443359375 78.07762908935547 0.0179901123046875 78.07517242431641 0.018096923828125 78.07028961181641 C 0.0182647705078125 78.06226348876953 0.018310546875 78.06032562255859 0.0184783935546875 78.05229949951172 C 0.018585205078125 78.04741668701172 0.0186767578125 78.04306030273438 0.0187835693359375 78.03817749023438 C 0.018890380859375 78.03282928466797 0.01904296875 78.02613830566406 0.0191650390625 78.02079010009766 C 0.019256591796875 78.01590728759766 0.01934814453125 78.011962890625 0.0194549560546875 78.007080078125 C 0.0195770263671875 78.00173187255859 0.019683837890625 77.99653625488281 0.019805908203125 77.99118041992188 C 0.0199432373046875 77.98508453369141 0.0200347900390625 77.98122406005859 0.0201568603515625 77.97512054443359 C 0.0202789306640625 77.96977233886719 0.0203857421875 77.96498107910156 0.0205078125 77.95963287353516 C 0.0206146240234375 77.95475006103516 0.020721435546875 77.950439453125 0.0208282470703125 77.945556640625 C 0.0209503173828125 77.94020843505859 0.0211029052734375 77.93340301513672 0.0212249755859375 77.92804718017578 C 0.0213165283203125 77.92439270019531 0.0214385986328125 77.91900634765625 0.021514892578125 77.91535186767578 C 0.021636962890625 77.90999603271484 0.021820068359375 77.90196228027344 0.0219573974609375 77.8966064453125 C 0.022064208984375 77.89173126220703 0.0221405029296875 77.88862609863281 0.022247314453125 77.88375091552734 C 0.022369384765625 77.87840270996094 0.0225067138671875 77.87273406982422 0.0226287841796875 77.86738586425781 C 0.0227508544921875 77.86250305175781 0.0228729248046875 77.85729217529297 0.0229949951171875 77.8524169921875 C 0.0231170654296875 77.84706878662109 0.023223876953125 77.84275054931641 0.023345947265625 77.83740234375 C 0.02349853515625 77.83130645751953 0.0235748291015625 77.82781219482422 0.0237274169921875 77.82171630859375 C 0.02392578125 77.81369018554688 0.02398681640625 77.81072235107422 0.0241851806640625 77.80269622802734 C 0.0242767333984375 77.79904174804688 0.0243682861328125 77.79509735107422 0.0244598388671875 77.79143524169922 C 0.02471923828125 77.78074645996094 0.0249481201171875 77.77194213867188 0.02520751953125 77.76124572753906 C 0.02532958984375 77.75637054443359 0.025421142578125 77.75286865234375 0.025543212890625 77.74799346923828 C 0.0257415771484375 77.73996734619141 0.0257720947265625 77.73905944824219 0.025970458984375 77.73104095458984 C 0.026123046875 77.72494506835938 0.0261993408203125 77.72221374511719 0.0263519287109375 77.71611785888672 C 0.02655029296875 77.70809936523438 0.0265655517578125 77.70747375488281 0.0267791748046875 77.69945526123047 C 0.0269012451171875 77.694580078125 0.0269622802734375 77.69189453125 0.027099609375 77.68701934814453 C 0.0272369384765625 77.68167114257813 0.027435302734375 77.67406463623047 0.0275726318359375 77.66872406005859 C 0.0276641845703125 77.66506195068359 0.0278472900390625 77.65827941894531 0.0279388427734375 77.65462493896484 C 0.028076171875 77.64927673339844 0.0282135009765625 77.64396667480469 0.0283660888671875 77.63861846923828 C 0.0284881591796875 77.63374328613281 0.02862548828125 77.62864685058594 0.02874755859375 77.62377166748047 C 0.028900146484375 77.61843109130859 0.029052734375 77.61270141601563 0.0291900634765625 77.60736083984375 C 0.029327392578125 77.60248565673828 0.0294342041015625 77.59823608398438 0.029571533203125 77.59336090087891 C 0.0297088623046875 77.58802032470703 0.0299072265625 77.58084106445313 0.030059814453125 77.57549285888672 C 0.0301513671875 77.57183837890625 0.0302886962890625 77.56683349609375 0.0303955078125 77.56317138671875 C 0.0305328369140625 77.55783081054688 0.03076171875 77.54959106445313 0.030914306640625 77.54424285888672 C 0.031005859375 77.54058837890625 0.0311431884765625 77.53563690185547 0.03125 77.531982421875 C 0.0314788818359375 77.52396392822266 0.0315704345703125 77.52064514160156 0.0317840576171875 77.51263427734375 C 0.031890869140625 77.50897979736328 0.0319976806640625 77.50496673583984 0.0321044921875 77.50131225585938 C 0.0323333740234375 77.49329376220703 0.032470703125 77.48859405517578 0.0326995849609375 77.48058319091797 C 0.0327911376953125 77.4769287109375 0.0328826904296875 77.47386932373047 0.032989501953125 77.47021484375 C 0.033294677734375 77.45952606201172 0.0335540771484375 77.45063781738281 0.0338592529296875 77.43994903564453 C 0.0339202880859375 77.43751525878906 0.034027099609375 77.43392944335938 0.0341033935546875 77.43149566650391 C 0.034332275390625 77.42348480224609 0.034515380859375 77.41722106933594 0.0347442626953125 77.40921020507813 C 0.03485107421875 77.40555572509766 0.03497314453125 77.40183258056641 0.0350799560546875 77.39817810058594 C 0.035308837890625 77.39016723632813 0.035430908203125 77.38595581054688 0.035675048828125 77.37794494628906 C 0.0357818603515625 77.37429046630859 0.0359039306640625 77.36991882324219 0.0360260009765625 77.36626434326172 C 0.0361785888671875 77.36092376708984 0.036407470703125 77.35343170166016 0.03656005859375 77.34809112548828 C 0.036712646484375 77.34322357177734 0.036865234375 77.33822631835938 0.0370025634765625 77.33335876464844 C 0.03717041015625 77.32801818847656 0.037322998046875 77.32288360595703 0.0374908447265625 77.31755065917969 C 0.037628173828125 77.31267547607422 0.037811279296875 77.30702209472656 0.0379486083984375 77.30215454101563 C 0.038116455078125 77.29681396484375 0.0382537841796875 77.29261016845703 0.0384063720703125 77.28726959228516 C 0.0385589599609375 77.28240203857422 0.0387420654296875 77.27643585205078 0.0388946533203125 77.27156066894531 C 0.0390625 77.26622009277344 0.0391998291015625 77.26182556152344 0.03936767578125 77.25648498535156 C 0.03955078125 77.25040435791016 0.0396728515625 77.24657440185547 0.0398712158203125 77.24048614501953 C 0.0400390625 77.23514556884766 0.0401153564453125 77.23236083984375 0.040283203125 77.22702026367188 C 0.0404815673828125 77.22093200683594 0.0406341552734375 77.21589660644531 0.04083251953125 77.20981597900391 C 0.040924072265625 77.20714569091797 0.04119873046875 77.19818878173828 0.041290283203125 77.19551849365234 C 0.04144287109375 77.19065093994141 0.0416412353515625 77.18437194824219 0.0417938232421875 77.17950439453125 C 0.0419769287109375 77.17416381835938 0.0421295166015625 77.16936492919922 0.04229736328125 77.16402435302734 C 0.042449951171875 77.15915679931641 0.0426177978515625 77.15399169921875 0.04278564453125 77.14912414550781 C 0.0429534912109375 77.14379119873047 0.043182373046875 77.13667297363281 0.043365478515625 77.13133239746094 C 0.0435943603515625 77.12403106689453 0.043914794921875 77.11430358886719 0.044158935546875 77.10700225830078 C 0.0444183349609375 77.0989990234375 0.04449462890625 77.09671783447266 0.044769287109375 77.08871459960938 C 0.044921875 77.08384704589844 0.0450439453125 77.08039855957031 0.0452117919921875 77.07553100585938 C 0.04547119140625 77.06752777099609 0.0455322265625 77.06578826904297 0.045806884765625 77.05778503417969 C 0.045928955078125 77.05413818359375 0.0460968017578125 77.04906463623047 0.0462188720703125 77.04541015625 C 0.0464935302734375 77.03740692138672 0.0465850830078125 77.03472137451172 0.046844482421875 77.02671813964844 C 0.0470123291015625 77.0218505859375 0.0471038818359375 77.01937866210938 0.047271728515625 77.01451110839844 C 0.047454833984375 77.00917816162109 0.0477294921875 77.00090026855469 0.04791259765625 76.99556732177734 C 0.04803466796875 76.99192047119141 0.048187255859375 76.98747253417969 0.0483245849609375 76.98382568359375 C 0.0485076904296875 76.97848510742188 0.0487823486328125 76.97030639648438 0.048980712890625 76.96497344970703 C 0.0491485595703125 76.96010589599609 0.0492401123046875 76.95716857910156 0.049407958984375 76.95230865478516 C 0.0496063232421875 76.94697570800781 0.0498809814453125 76.93901824951172 0.0500640869140625 76.93368530273438 C 0.050201416015625 76.93003845214844 0.05035400390625 76.92554473876953 0.05047607421875 76.92189788818359 C 0.0506744384765625 76.91656494140625 0.05096435546875 76.90828704833984 0.0511474609375 76.9029541015625 C 0.05133056640625 76.89809417724609 0.051422119140625 76.89536285400391 0.0515899658203125 76.89049530029297 C 0.051788330078125 76.88516235351563 0.052093505859375 76.87682342529297 0.052276611328125 76.87149047851563 C 0.0524139404296875 76.86784362792969 0.05255126953125 76.86372375488281 0.0526885986328125 76.86007690429688 C 0.052978515625 76.85208129882813 0.053070068359375 76.84954071044922 0.0533599853515625 76.84154510498047 C 0.0535430908203125 76.83668518066406 0.0536651611328125 76.83329772949219 0.0538330078125 76.82843780517578 C 0.0541229248046875 76.82044219970703 0.0542755126953125 76.81648254394531 0.0545654296875 76.80847930908203 C 0.0547027587890625 76.80483245849609 0.0548095703125 76.80192565917969 0.0549468994140625 76.79827880859375 C 0.055328369140625 76.78762054443359 0.0556640625 76.77854919433594 0.056060791015625 76.76788330078125 C 0.0561981201171875 76.76423645019531 0.0562744140625 76.76235961914063 0.0564117431640625 76.75871276855469 C 0.05670166015625 76.75071716308594 0.056915283203125 76.74517822265625 0.057220458984375 76.7371826171875 C 0.0573577880859375 76.73353576660156 0.0576019287109375 76.72689819335938 0.0577392578125 76.72325134277344 C 0.0579376220703125 76.71792602539063 0.058135986328125 76.71285247802734 0.0583343505859375 76.70752716064453 C 0.0585174560546875 76.70265960693359 0.0587615966796875 76.69630432128906 0.0589447021484375 76.69144439697266 C 0.05914306640625 76.68611145019531 0.0593109130859375 76.68178558349609 0.0595245361328125 76.67646026611328 C 0.0597076416015625 76.67159271240234 0.0599212646484375 76.66596984863281 0.0601043701171875 76.66110992431641 C 0.0603179931640625 76.65577697753906 0.06048583984375 76.65131378173828 0.060699462890625 76.64598846435547 C 0.060882568359375 76.64112854003906 0.0610809326171875 76.63600158691406 0.0612640380859375 76.63114166259766 C 0.0614776611328125 76.62581634521484 0.06170654296875 76.61990356445313 0.061920166015625 76.61457061767578 C 0.062103271484375 76.60971069335938 0.062286376953125 76.60521697998047 0.062469482421875 76.60035705566406 C 0.06268310546875 76.59502410888672 0.062896728515625 76.58944702148438 0.0631103515625 76.58412170410156 C 0.0633087158203125 76.57926177978516 0.0634765625 76.57480621337891 0.0636749267578125 76.5699462890625 C 0.0638885498046875 76.56462097167969 0.0641937255859375 76.55668640136719 0.0644073486328125 76.55136108398438 C 0.0645599365234375 76.54771423339844 0.0647125244140625 76.54374694824219 0.0648651123046875 76.54010772705078 C 0.065185546875 76.53211212158203 0.0654449462890625 76.5255126953125 0.065765380859375 76.51752471923828 C 0.0658721923828125 76.51509094238281 0.06597900390625 76.51212310791016 0.0660858154296875 76.50969696044922 C 0.06640625 76.50170135498047 0.0667724609375 76.49287414550781 0.0670928955078125 76.48488616943359 C 0.0671844482421875 76.48245239257813 0.0672607421875 76.48078918457031 0.067352294921875 76.47836303710938 C 0.0677947998046875 76.46771240234375 0.06805419921875 76.46114349365234 0.0684967041015625 76.45049285888672 C 0.068695068359375 76.44563293457031 0.068817138671875 76.44261169433594 0.06903076171875 76.43775177001953 C 0.0693511962890625 76.42976379394531 0.069549560546875 76.42506408691406 0.06988525390625 76.41707611083984 C 0.070037841796875 76.41343688964844 0.070159912109375 76.41017913818359 0.0703125 76.40653228759766 C 0.070648193359375 76.39854431152344 0.070831298828125 76.39406585693359 0.0711669921875 76.38607788085938 C 0.071319580078125 76.38243865966797 0.071502685546875 76.37815093994141 0.0716552734375 76.37451171875 C 0.071990966796875 76.36652374267578 0.0721282958984375 76.36336517333984 0.0724639892578125 76.35538482666016 C 0.0726776123046875 76.35052490234375 0.07275390625 76.34852600097656 0.072967529296875 76.34367370605469 C 0.0731964111328125 76.33834838867188 0.07354736328125 76.32994842529297 0.0737762451171875 76.32463073730469 C 0.0739288330078125 76.32098388671875 0.07415771484375 76.31575775146484 0.074310302734375 76.31211853027344 C 0.0745391845703125 76.30679321289063 0.0748748779296875 76.29901885986328 0.075103759765625 76.29369354248047 C 0.0753173828125 76.28884124755859 0.075408935546875 76.28673553466797 0.0756072998046875 76.28187561035156 C 0.075836181640625 76.27655792236328 0.07623291015625 76.26766204833984 0.0764617919921875 76.26233673095703 C 0.0766143798828125 76.25869750976563 0.076812744140625 76.25426483154297 0.07696533203125 76.25062561035156 C 0.0771942138671875 76.24530029296875 0.077545166015625 76.23751068115234 0.0777740478515625 76.23219299316406 C 0.0779876708984375 76.22733306884766 0.0781097412109375 76.22451019287109 0.0783233642578125 76.21965789794922 C 0.07855224609375 76.21434020996094 0.078887939453125 76.20695495605469 0.0791168212890625 76.20162963867188 C 0.07928466796875 76.19799041748047 0.07952880859375 76.19241333007813 0.0796966552734375 76.18877410888672 C 0.080047607421875 76.18079376220703 0.0804290771484375 76.17221832275391 0.080780029296875 76.16423797607422 C 0.080841064453125 76.16302490234375 0.0809478759765625 76.16049194335938 0.0810089111328125 76.15927886962891 C 0.0819549560546875 76.13800048828125 0.0828857421875 76.11746978759766 0.0838470458984375 76.09619140625 C 0.0838470458984375 76.09619140625 0.08392333984375 76.09470367431641 0.08392333984375 76.09470367431641 C 0.08441162109375 76.08406066894531 0.0847625732421875 76.07625579833984 0.0852508544921875 76.06561279296875 C 0.085357666015625 76.06318664550781 0.08544921875 76.06140899658203 0.0855560302734375 76.05898284912109 C 0.0859222412109375 76.05100250244141 0.086334228515625 76.04203796386719 0.086700439453125 76.03406524658203 C 0.086761474609375 76.03285217285156 0.086944580078125 76.02880096435547 0.087005615234375 76.027587890625 C 0.087371826171875 76.01960754394531 0.0877685546875 76.01123046875 0.088134765625 76.00325012207031 C 0.0882568359375 76.00083160400391 0.08837890625 75.99794769287109 0.0885009765625 75.99552154541016 C 0.0887451171875 75.99020385742188 0.089324951171875 75.97787475585938 0.0895843505859375 75.97255706787109 C 0.089691162109375 75.97013092041016 0.08990478515625 75.96547698974609 0.09002685546875 75.96305084228516 C 0.09027099609375 75.95773315429688 0.0907135009765625 75.94863128662109 0.0909576416015625 75.94331359863281 C 0.09112548828125 75.93967437744141 0.09136962890625 75.93467712402344 0.0915374755859375 75.93103790283203 C 0.091796875 75.92572784423828 0.092193603515625 75.91736602783203 0.0924530029296875 75.91205596923828 C 0.092620849609375 75.90841674804688 0.09283447265625 75.90410614013672 0.0930023193359375 75.90046691894531 C 0.09326171875 75.89514923095703 0.0937347412109375 75.88521575927734 0.093994140625 75.87990570068359 C 0.0941619873046875 75.87626647949219 0.0942840576171875 75.87385559082031 0.094451904296875 75.87021636962891 C 0.0948486328125 75.86224365234375 0.0951690673828125 75.85549926757813 0.0955657958984375 75.84752655029297 C 0.095672607421875 75.84510803222656 0.0958404541015625 75.84162902832031 0.0959625244140625 75.83921051025391 C 0.0964813232421875 75.82857513427734 0.0968017578125 75.82212829589844 0.097320556640625 75.81150054931641 C 0.097381591796875 75.81028747558594 0.0973968505859375 75.80988311767578 0.0974578857421875 75.80867004394531 C 0.0979766845703125 75.79804229736328 0.09844970703125 75.78849792480469 0.098968505859375 75.77787017822266 C 0.099151611328125 75.77423858642578 0.0992584228515625 75.77218627929688 0.0994415283203125 75.7685546875 C 0.0998382568359375 75.76058197021484 0.10009765625 75.755126953125 0.1005096435546875 75.74715423583984 C 0.100677490234375 75.74352264404297 0.1009674072265625 75.73786163330078 0.1011505126953125 75.73423004150391 C 0.1015472412109375 75.72625732421875 0.101593017578125 75.72518157958984 0.1020050048828125 75.71721649169922 C 0.1022491455078125 75.71237182617188 0.1025238037109375 75.70690155029297 0.1027679443359375 75.70205688476563 C 0.10302734375 75.69674682617188 0.1032562255859375 75.69220733642578 0.1035308837890625 75.68689727783203 C 0.1037750244140625 75.68205261230469 0.1040802001953125 75.67596435546875 0.1043243408203125 75.67111968994141 C 0.1045989990234375 75.66580200195313 0.104827880859375 75.66129302978516 0.1051025390625 75.65597534179688 C 0.1053466796875 75.65113067626953 0.1055908203125 75.64635467529297 0.1058349609375 75.64151000976563 C 0.106109619140625 75.63619995117188 0.1063995361328125 75.63069915771484 0.1066741943359375 75.62538909912109 C 0.1069183349609375 75.62054443359375 0.1071929931640625 75.61524963378906 0.1074371337890625 75.61040496826172 C 0.1077117919921875 75.60509490966797 0.1080169677734375 75.59932708740234 0.1082916259765625 75.59401702880859 C 0.1084747314453125 75.59038543701172 0.1087646484375 75.58489990234375 0.10894775390625 75.58126831054688 C 0.109222412109375 75.57595825195313 0.109649658203125 75.56779479980469 0.10992431640625 75.56248474121094 C 0.1101837158203125 75.55764007568359 0.1103363037109375 75.55469512939453 0.1105804443359375 75.54985809326172 C 0.1108551025390625 75.54454803466797 0.11126708984375 75.53681182861328 0.111541748046875 75.53150177001953 C 0.1117401123046875 75.52787017822266 0.1119842529296875 75.5233154296875 0.1121673583984375 75.51968383789063 C 0.1125946044921875 75.51172637939453 0.11273193359375 75.509033203125 0.1131591796875 75.50106811523438 C 0.1134033203125 75.49622344970703 0.1135711669921875 75.49317932128906 0.11383056640625 75.48833465576172 C 0.1143951416015625 75.47772216796875 0.1148529052734375 75.46909332275391 0.11541748046875 75.45847320556641 C 0.115478515625 75.45726776123047 0.11553955078125 75.45616149902344 0.1156005859375 75.45494842529297 C 0.116180419921875 75.4443359375 0.1164398193359375 75.43928527832031 0.1170196533203125 75.42866516113281 C 0.117279052734375 75.423828125 0.1175537109375 75.4188232421875 0.1178131103515625 75.41397857666016 C 0.11810302734375 75.40866851806641 0.1183929443359375 75.40314483642578 0.118682861328125 75.39783477783203 C 0.1189422607421875 75.39299774169922 0.119171142578125 75.38893127441406 0.1194305419921875 75.38409423828125 C 0.119720458984375 75.3787841796875 0.12005615234375 75.37256622314453 0.1203460693359375 75.36726379394531 C 0.12060546875 75.36241912841797 0.1208038330078125 75.35894775390625 0.121063232421875 75.35410308837891 C 0.1213531494140625 75.34880065917969 0.1217803955078125 75.34107971191406 0.1220703125 75.33577728271484 C 0.1222686767578125 75.33214569091797 0.12255859375 75.32695770263672 0.1227569580078125 75.32332611083984 C 0.123046875 75.31802368164063 0.1234130859375 75.31139373779297 0.1237030029296875 75.30609130859375 C 0.1239776611328125 75.30124664306641 0.12420654296875 75.29700469970703 0.124481201171875 75.29216766357422 C 0.1247711181640625 75.28685760498047 0.1251678466796875 75.27994537353516 0.125457763671875 75.27463531494141 C 0.1256561279296875 75.27101135253906 0.1259613037109375 75.26572418212891 0.12615966796875 75.26209259033203 C 0.1264495849609375 75.25679016113281 0.12689208984375 75.24897766113281 0.127197265625 75.24367523193359 C 0.1274566650390625 75.23883819580078 0.1276092529296875 75.23632049560547 0.12786865234375 75.23148345947266 C 0.128173828125 75.22618103027344 0.128631591796875 75.21793365478516 0.128936767578125 75.21263122558594 C 0.129150390625 75.20899963378906 0.129425048828125 75.20411682128906 0.1296234130859375 75.20048522949219 C 0.1300811767578125 75.19253540039063 0.130157470703125 75.19113922119141 0.130615234375 75.18318176269531 C 0.130889892578125 75.1783447265625 0.131103515625 75.17453002929688 0.131378173828125 75.16969299316406 C 0.131988525390625 75.15908813476563 0.1323699951171875 75.15242004394531 0.132965087890625 75.14181518554688 C 0.1330413818359375 75.14060211181641 0.1330108642578125 75.14115142822266 0.1330718994140625 75.13994598388672 C 0.1342926025390625 75.11873626708984 0.1354217529296875 75.09919738769531 0.13665771484375 75.07798767089844 C 0.1367950439453125 75.07556915283203 0.136993408203125 75.07240295410156 0.1371307373046875 75.06998443603516 C 0.1375885009765625 75.06203460693359 0.137969970703125 75.05544281005859 0.1384429931640625 75.04749298095703 C 0.1386566162109375 75.04386138916016 0.13885498046875 75.04035949707031 0.139068603515625 75.03673553466797 C 0.1393890380859375 75.03143310546875 0.1399078369140625 75.02251434326172 0.140228271484375 75.0172119140625 C 0.14044189453125 75.01358795166016 0.1407012939453125 75.00914001464844 0.1409149169921875 75.00550842285156 C 0.1412200927734375 75.00021362304688 0.1417236328125 74.99179840087891 0.1420440673828125 74.98649597167969 C 0.142333984375 74.98166656494141 0.142486572265625 74.97900390625 0.1427764892578125 74.97417449951172 C 0.1430816650390625 74.9688720703125 0.1435394287109375 74.96119689941406 0.14385986328125 74.95589447021484 C 0.144073486328125 74.9522705078125 0.1443634033203125 74.94738006591797 0.14459228515625 74.94374847412109 C 0.1449127197265625 74.93845367431641 0.1453857421875 74.93049621582031 0.1457061767578125 74.92520141601563 C 0.1459197998046875 74.92156982421875 0.1462249755859375 74.91648101806641 0.1464385986328125 74.91285705566406 C 0.146759033203125 74.90756225585938 0.1473846435546875 74.89728546142578 0.147705078125 74.89198303222656 C 0.147918701171875 74.88835906982422 0.1479949951171875 74.88712310791016 0.148223876953125 74.88349914550781 C 0.1486968994140625 74.87554931640625 0.149200439453125 74.86740875244141 0.1496734619140625 74.85945892333984 C 0.1498260498046875 74.85704040527344 0.14996337890625 74.85474395751953 0.150115966796875 74.85232543945313 C 0.1507568359375 74.84172821044922 0.1511077880859375 74.83596038818359 0.151763916015625 74.82537078857422 C 0.1518402099609375 74.82415771484375 0.15191650390625 74.82283782958984 0.1519927978515625 74.82163238525391 C 0.15264892578125 74.81103515625 0.1532440185546875 74.80127716064453 0.153900146484375 74.79067993164063 C 0.1539764404296875 74.78947448730469 0.1541290283203125 74.78709411621094 0.1541900634765625 74.785888671875 C 0.154693603515625 74.77794647216797 0.15533447265625 74.76760101318359 0.15582275390625 74.75965881347656 C 0.155975341796875 74.75724029541016 0.1562042236328125 74.75359344482422 0.1563568115234375 74.75118255615234 C 0.1568450927734375 74.74324035644531 0.1571807861328125 74.73794555664063 0.1576690673828125 74.72999572753906 C 0.1579742431640625 74.72516632080078 0.158233642578125 74.72113037109375 0.1585235595703125 74.71630096435547 C 0.1588592529296875 74.71100616455078 0.15924072265625 74.705078125 0.1595611572265625 74.69978332519531 C 0.1598663330078125 74.69495391845703 0.160186767578125 74.69004821777344 0.160491943359375 74.68521881103516 C 0.16082763671875 74.67992401123047 0.1611480712890625 74.67462921142578 0.1614837646484375 74.66933441162109 C 0.161712646484375 74.66571044921875 0.162139892578125 74.65916442871094 0.1623687744140625 74.65554046630859 C 0.1627044677734375 74.65024566650391 0.16314697265625 74.64311218261719 0.1634979248046875 74.6378173828125 C 0.1638031005859375 74.63298797607422 0.16400146484375 74.62982940673828 0.164306640625 74.625 C 0.164642333984375 74.61970520019531 0.165069580078125 74.61314392089844 0.1654052734375 74.60784912109375 C 0.1656341552734375 74.60423278808594 0.1660614013671875 74.59774017333984 0.166290283203125 74.59412384033203 C 0.1666259765625 74.58882904052734 0.1670684814453125 74.58199310302734 0.1674041748046875 74.57669830322266 C 0.167724609375 74.57187652587891 0.1679229736328125 74.5687255859375 0.1682281494140625 74.56389617919922 C 0.1685791015625 74.55860137939453 0.1691131591796875 74.55027008056641 0.169464111328125 74.54498291015625 C 0.1696929931640625 74.54135894775391 0.169952392578125 74.53746032714844 0.1701812744140625 74.53383636474609 C 0.1707000732421875 74.52590179443359 0.171234130859375 74.51773071289063 0.1717529296875 74.50978851318359 C 0.1718292236328125 74.50858306884766 0.1720733642578125 74.50471496582031 0.1721649169921875 74.50350952148438 C 0.1735382080078125 74.48233795166016 0.174835205078125 74.46278381347656 0.1762237548828125 74.44161987304688 C 0.1763153076171875 74.44041442871094 0.1765289306640625 74.43702697753906 0.1766204833984375 74.43582153320313 C 0.1771392822265625 74.42788696289063 0.177703857421875 74.41929626464844 0.1782379150390625 74.41136169433594 C 0.1784820556640625 74.40774536132813 0.1787567138671875 74.40355682373047 0.1790008544921875 74.39994049072266 C 0.179351806640625 74.3946533203125 0.1798858642578125 74.38669586181641 0.18023681640625 74.38140869140625 C 0.1805572509765625 74.37657928466797 0.1807708740234375 74.37338256835938 0.18109130859375 74.36856079101563 C 0.18145751953125 74.36327362060547 0.18194580078125 74.35591125488281 0.1822967529296875 74.35062408447266 C 0.1825408935546875 74.34700775146484 0.1828765869140625 74.34203338623047 0.1831207275390625 74.33841705322266 C 0.1834869384765625 74.3331298828125 0.18408203125 74.32418060302734 0.1844482421875 74.31889343261719 C 0.1846923828125 74.31527709960938 0.1848907470703125 74.3123779296875 0.1851348876953125 74.30876159667969 C 0.18548583984375 74.30347442626953 0.1861419677734375 74.29383087158203 0.1865081787109375 74.28854370117188 C 0.1867523193359375 74.28492736816406 0.187042236328125 74.28064727783203 0.187286376953125 74.27703094482422 C 0.187652587890625 74.27174377441406 0.18829345703125 74.26222229003906 0.18865966796875 74.25693511962891 C 0.1888275146484375 74.25452423095703 0.18914794921875 74.24988555908203 0.189300537109375 74.24747467041016 C 0.189849853515625 74.23954010009766 0.1903533935546875 74.23233032226563 0.190887451171875 74.22440338134766 C 0.1910552978515625 74.22199249267578 0.191253662109375 74.21913909912109 0.1914215087890625 74.21672821044922 C 0.1921539306640625 74.20615386962891 0.19268798828125 74.19845581054688 0.19342041015625 74.18788146972656 C 0.19342041015625 74.18788146972656 0.1934814453125 74.18690490722656 0.1934814453125 74.18690490722656 C 0.1956787109375 74.15518951416016 0.197845458984375 74.12422943115234 0.2000885009765625 74.09252166748047 C 0.200164794921875 74.09131622314453 0.200225830078125 74.09053802490234 0.2003021240234375 74.08933258056641 C 0.2010498046875 74.07876586914063 0.2015228271484375 74.07222747802734 0.2022705078125 74.06166076660156 C 0.2023468017578125 74.06045532226563 0.20257568359375 74.05722808837891 0.202667236328125 74.05602264404297 C 0.2032318115234375 74.048095703125 0.2038421630859375 74.03945159912109 0.20440673828125 74.03152465820313 C 0.2045745849609375 74.02912139892578 0.2048187255859375 74.02572631835938 0.2050018310546875 74.0233154296875 C 0.20556640625 74.01539611816406 0.206085205078125 74.00813293457031 0.2066497802734375 74.00020599365234 C 0.206817626953125 73.997802734375 0.20703125 73.99481201171875 0.20721435546875 73.99240112304688 C 0.20758056640625 73.98712158203125 0.20843505859375 73.97535705566406 0.2088165283203125 73.97007751464844 C 0.208984375 73.96766662597656 0.2093048095703125 73.96323394775391 0.2094879150390625 73.96082305908203 C 0.209869384765625 73.95554351806641 0.2106475830078125 73.94461059570313 0.211029052734375 73.9393310546875 C 0.2113037109375 73.93571472167969 0.21148681640625 73.93305969238281 0.2117462158203125 73.92945098876953 C 0.212127685546875 73.92416381835938 0.2127838134765625 73.91531372070313 0.213165283203125 73.9100341796875 C 0.2134246826171875 73.90641784667969 0.2137603759765625 73.90187072753906 0.214019775390625 73.89826202392578 C 0.214599609375 73.89033508300781 0.214996337890625 73.88493347167969 0.215576171875 73.87700653076172 C 0.2157440185546875 73.87460327148438 0.2160186767578125 73.87083435058594 0.2162017822265625 73.86842346191406 C 0.21697998046875 73.85786437988281 0.217498779296875 73.85068511962891 0.2182769775390625 73.84012603759766 C 0.2182769775390625 73.84012603759766 0.2184295654296875 73.83817291259766 0.2184295654296875 73.83817291259766 C 0.2199859619140625 73.81705474853516 0.2214813232421875 73.79689025878906 0.223052978515625 73.77577972412109 C 0.22314453125 73.77457427978516 0.22332763671875 73.77207946777344 0.223419189453125 73.77088165283203 C 0.2239990234375 73.76296234130859 0.224761962890625 73.7529296875 0.225341796875 73.74501037597656 C 0.22552490234375 73.74259948730469 0.2256622314453125 73.74077606201172 0.2258453369140625 73.73836517333984 C 0.2264404296875 73.73045349121094 0.22705078125 73.72237396240234 0.2276458740234375 73.71445465087891 C 0.2278289794921875 73.71205139160156 0.228179931640625 73.70738983154297 0.228363037109375 73.70497894287109 C 0.228759765625 73.69969940185547 0.229461669921875 73.69025421142578 0.2298736572265625 73.68497467041016 C 0.230133056640625 73.68136596679688 0.230499267578125 73.67653656005859 0.23077392578125 73.67292785644531 C 0.2311859130859375 73.66764831542969 0.2317352294921875 73.660400390625 0.2321319580078125 73.65512847900391 C 0.2324981689453125 73.65031433105469 0.2328033447265625 73.64634704589844 0.2331695556640625 73.64153289794922 C 0.2335662841796875 73.63626098632813 0.2341461181640625 73.62874603271484 0.2345428466796875 73.62346649169922 C 0.2348175048828125 73.61985778808594 0.235107421875 73.61610412597656 0.235382080078125 73.61249542236328 C 0.23577880859375 73.60721588134766 0.2365875244140625 73.59682464599609 0.2369842529296875 73.59154510498047 C 0.2371673583984375 73.58914184570313 0.237548828125 73.58430480957031 0.23773193359375 73.58190155029297 C 0.23834228515625 73.57398986816406 0.2388916015625 73.56675720214844 0.239501953125 73.55884552001953 C 0.23968505859375 73.55644226074219 0.2398529052734375 73.55426025390625 0.24005126953125 73.55185699462891 C 0.2408599853515625 73.54130554199219 0.24127197265625 73.53597259521484 0.242095947265625 73.52542114257813 C 0.2421875 73.52421569824219 0.242340087890625 73.52230072021484 0.242431640625 73.52110290527344 C 0.2440643310546875 73.50000762939453 0.2456512451171875 73.4796142578125 0.247314453125 73.45851898193359 C 0.247314453125 73.45851898193359 0.2473297119140625 73.45826721191406 0.2473297119140625 73.45826721191406 C 0.2481536865234375 73.44772338867188 0.248870849609375 73.43862152099609 0.2497100830078125 73.42807769775391 C 0.2498931884765625 73.42567443847656 0.2500762939453125 73.42336273193359 0.250274658203125 73.42095947265625 C 0.2509002685546875 73.41304779052734 0.25140380859375 73.40668487548828 0.2520294189453125 73.39877319335938 C 0.2523040771484375 73.39517211914063 0.2526092529296875 73.39133453369141 0.252899169921875 73.38772583007813 C 0.2535247802734375 73.37982177734375 0.2539215087890625 73.37493896484375 0.254547119140625 73.36702728271484 C 0.2548370361328125 73.36342620849609 0.2550048828125 73.36128997802734 0.2552947998046875 73.35768127441406 C 0.255706787109375 73.35240936279297 0.256561279296875 73.34175109863281 0.256988525390625 73.33647918701172 C 0.2572784423828125 73.33287048339844 0.2574310302734375 73.33091735839844 0.257720947265625 73.32730865478516 C 0.258148193359375 73.32203674316406 0.25909423828125 73.31024932861328 0.2595062255859375 73.30497741699219 C 0.259796142578125 73.30136871337891 0.2599029541015625 73.30002593994141 0.26019287109375 73.29641723632813 C 0.260833740234375 73.28851318359375 0.2613525390625 73.28213500976563 0.261993408203125 73.27423095703125 C 0.262176513671875 73.27182769775391 0.2624664306640625 73.26828765869141 0.262664794921875 73.26588439941406 C 0.2633056640625 73.25798034667969 0.2639312744140625 73.25027465820313 0.2645721435546875 73.24237060546875 C 0.2647705078125 73.23996734619141 0.2649688720703125 73.23738098144531 0.265167236328125 73.23497772216797 C 0.266021728515625 73.22444152832031 0.266448974609375 73.21922302246094 0.2673187255859375 73.20868682861328 C 0.2674102783203125 73.20748901367188 0.26751708984375 73.20607757568359 0.2676239013671875 73.20487976074219 C 0.2684783935546875 73.19434356689453 0.2692413330078125 73.18498992919922 0.270111083984375 73.17445373535156 C 0.2702178955078125 73.17325592041016 0.2700653076171875 73.17503356933594 0.2701568603515625 73.173828125 C 0.271026611328125 73.16329193115234 0.271881103515625 73.15294647216797 0.2727508544921875 73.14241027832031 C 0.2728424072265625 73.14121246337891 0.2727508544921875 73.14237976074219 0.2728424072265625 73.14117431640625 C 0.273712158203125 73.13064575195313 0.2744293212890625 73.12199401855469 0.275299072265625 73.11146545410156 C 0.2754058837890625 73.11026000976563 0.2755584716796875 73.10846710205078 0.2756500244140625 73.10726928710938 C 0.276519775390625 73.09673309326172 0.2769622802734375 73.09140777587891 0.2778472900390625 73.08087921142578 C 0.278045654296875 73.07847595214844 0.2782135009765625 73.07651519775391 0.278411865234375 73.07411193847656 C 0.2790679931640625 73.06620788574219 0.2797698974609375 73.05770874023438 0.2804412841796875 73.04981231689453 C 0.2806396484375 73.04740905761719 0.280792236328125 73.04557037353516 0.2809906005859375 73.04316711425781 C 0.28143310546875 73.03790283203125 0.282501220703125 73.025146484375 0.2829437255859375 73.01987457275391 C 0.2832489013671875 73.01627349853516 0.283447265625 73.01393890380859 0.28375244140625 73.01033782958984 C 0.2841949462890625 73.00507354736328 0.2850494384765625 72.99493408203125 0.285491943359375 72.98966979980469 C 0.285797119140625 72.98606872558594 0.286041259765625 72.98304748535156 0.286346435546875 72.97944641113281 C 0.28680419921875 72.97418212890625 0.287628173828125 72.96440124511719 0.2880706787109375 72.95913696289063 C 0.2883758544921875 72.95553588867188 0.288665771484375 72.95206451416016 0.288970947265625 72.94846343994141 C 0.2894287109375 72.94319915771484 0.290252685546875 72.93338775634766 0.29071044921875 72.92812347412109 C 0.291015625 72.92452239990234 0.291229248046875 72.92192077636719 0.291534423828125 72.91831970214844 C 0.292205810546875 72.91042327880859 0.292633056640625 72.90547943115234 0.293304443359375 72.89759063720703 C 0.2936248779296875 72.89398956298828 0.2938995361328125 72.8907470703125 0.2942047119140625 72.88714599609375 C 0.2978057861328125 72.84504699707031 0.30108642578125 72.80705261230469 0.3047637939453125 72.76497650146484 C 0.3049774169921875 72.7625732421875 0.30517578125 72.76027679443359 0.305389404296875 72.75787353515625 C 0.3060760498046875 72.74998474121094 0.3067779541015625 72.74198913574219 0.307464599609375 72.73410034179688 C 0.30767822265625 72.73169708251953 0.30792236328125 72.72891235351563 0.3081207275390625 72.72650909423828 C 0.3088226318359375 72.71862030029297 0.3094329833984375 72.71160888671875 0.3101348876953125 72.70372009277344 C 0.310333251953125 72.70131683349609 0.3106536865234375 72.69775390625 0.3108673095703125 72.69535064697266 C 0.311553955078125 72.68746185302734 0.3121795654296875 72.68041229248047 0.3128814697265625 72.67253112792969 C 0.3130950927734375 72.67012786865234 0.31341552734375 72.66645812988281 0.313629150390625 72.6640625 C 0.3140869140625 72.65879821777344 0.3149566650390625 72.64900970458984 0.3154296875 72.64375305175781 C 0.3157501220703125 72.64015197753906 0.316131591796875 72.63578033447266 0.3164520263671875 72.63217926025391 C 0.316925048828125 72.62692260742188 0.317779541015625 72.61735534667969 0.3182373046875 72.61209869384766 C 0.318450927734375 72.60969543457031 0.3188934326171875 72.60485076904297 0.3191070556640625 72.60245513916016 C 0.320037841796875 72.59194183349609 0.320404052734375 72.58781433105469 0.32135009765625 72.57730102539063 C 0.3214569091796875 72.57610321044922 0.3216094970703125 72.57432556152344 0.3217315673828125 72.57312774658203 C 0.3254852294921875 72.53107452392578 0.3291778564453125 72.49029541015625 0.3330078125 72.44825744628906 C 0.3331146240234375 72.44705963134766 0.333099365234375 72.4473876953125 0.3332061767578125 72.44618988037109 C 0.3341522216796875 72.43568420410156 0.3347930908203125 72.42876434326172 0.33575439453125 72.41825103759766 C 0.3358612060546875 72.41705322265625 0.3362579345703125 72.41270446777344 0.3363800048828125 72.41150665283203 C 0.33709716796875 72.40362548828125 0.337799072265625 72.39594268798828 0.338531494140625 72.38806915283203 C 0.3387451171875 72.38567352294922 0.339080810546875 72.38199615478516 0.3393096923828125 72.37960052490234 C 0.34002685546875 72.37171936035156 0.3407745361328125 72.36366271972656 0.3415069580078125 72.35578155517578 C 0.34161376953125 72.35458374023438 0.34185791015625 72.35198211669922 0.3419647216796875 72.35078430175781 C 0.342926025390625 72.34027862548828 0.3433990478515625 72.33528900146484 0.3443756103515625 72.32478332519531 C 0.344482421875 72.32358551025391 0.3448028564453125 72.32017517089844 0.34490966796875 72.31897735595703 C 0.34564208984375 72.31109619140625 0.346435546875 72.30259704589844 0.34716796875 72.29472351074219 C 0.347381591796875 72.29232788085938 0.34759521484375 72.29010009765625 0.3478240966796875 72.28770446777344 C 0.3485565185546875 72.27983093261719 0.3492431640625 72.27246856689453 0.3499755859375 72.26458740234375 C 0.350311279296875 72.26100158691406 0.35040283203125 72.25997924804688 0.350738525390625 72.25638580322266 C 0.3517303466796875 72.24588775634766 0.352142333984375 72.24146270751953 0.3531341552734375 72.23096466064453 C 0.353240966796875 72.22976684570313 0.3534393310546875 72.22769927978516 0.353546142578125 72.22650146484375 C 0.3545379638671875 72.21600341796875 0.35516357421875 72.20925140380859 0.3561553955078125 72.19875335693359 C 0.3562774658203125 72.19755554199219 0.3563690185546875 72.19656372070313 0.356475830078125 72.19537353515625 C 0.35845947265625 72.17436981201172 0.3602752685546875 72.15522766113281 0.362274169921875 72.13423919677734 C 0.3625030517578125 72.13184356689453 0.362762451171875 72.12913513183594 0.3629913330078125 72.12673950195313 C 0.363739013671875 72.11886596679688 0.364532470703125 72.11058044433594 0.3652801513671875 72.10270690917969 C 0.365509033203125 72.10031890869141 0.3656158447265625 72.09927368164063 0.3658447265625 72.09688568115234 C 0.3665924072265625 72.08901214599609 0.3673858642578125 72.0806884765625 0.3681488037109375 72.07281494140625 C 0.368377685546875 72.07042694091797 0.3687591552734375 72.06645202636719 0.368988037109375 72.06405639648438 C 0.3694915771484375 72.05881500244141 0.3705596923828125 72.04771423339844 0.371063232421875 72.04247283935547 C 0.37139892578125 72.03887939453125 0.3717193603515625 72.03569793701172 0.3720550537109375 72.0321044921875 C 0.37255859375 72.02686309814453 0.373382568359375 72.01840972900391 0.3738861083984375 72.01316833496094 C 0.3743438720703125 72.00837707519531 0.37457275390625 72.00600433349609 0.3750457763671875 72.001220703125 C 0.37554931640625 71.99597930908203 0.3764495849609375 71.98678588867188 0.376953125 71.98154449462891 C 0.3773040771484375 71.97795867919922 0.3776092529296875 71.97476959228516 0.377960205078125 71.97118377685547 C 0.3784637451171875 71.9659423828125 0.3793792724609375 71.95655822753906 0.3798980712890625 71.95131683349609 C 0.3802490234375 71.94772338867188 0.380584716796875 71.94423675537109 0.3809356689453125 71.94064331054688 C 0.3816986083984375 71.93277740478516 0.3822784423828125 71.92694091796875 0.3830413818359375 71.91907501220703 C 0.383270263671875 71.91668701171875 0.383636474609375 71.9129638671875 0.383880615234375 71.91056823730469 C 0.3849029541015625 71.90008544921875 0.3854522705078125 71.89447021484375 0.3864898681640625 71.88398742675781 C 0.3865966796875 71.88278961181641 0.3867034912109375 71.88179779052734 0.386810302734375 71.88059997558594 C 0.388885498046875 71.85962677001953 0.3908233642578125 71.84001159667969 0.3928985595703125 71.81903839111328 C 0.39324951171875 71.81545257568359 0.393310546875 71.81487274169922 0.3936614990234375 71.81128692626953 C 0.394439697265625 71.80342864990234 0.395111083984375 71.79673767089844 0.3958892822265625 71.78887176513672 C 0.3962554931640625 71.78528594970703 0.396514892578125 71.78268432617188 0.3968658447265625 71.77909851074219 C 0.3976593017578125 71.77123260498047 0.3981475830078125 71.76630401611328 0.39892578125 71.75844573974609 C 0.3992919921875 71.75485992431641 0.3996429443359375 71.75128936767578 0.4000091552734375 71.74770355224609 C 0.400787353515625 71.73983764648438 0.401214599609375 71.73551940917969 0.402008056640625 71.7276611328125 C 0.402374267578125 71.72407531738281 0.40264892578125 71.72135162353516 0.4029998779296875 71.71776580810547 C 0.403533935546875 71.7125244140625 0.4044952392578125 71.70295715332031 0.4050140380859375 71.69771575927734 C 0.4053802490234375 71.69412994384766 0.4058074951171875 71.68988037109375 0.4061737060546875 71.68629455566406 C 0.4066925048828125 71.68105316162109 0.4076385498046875 71.67170715332031 0.408172607421875 71.66646575927734 C 0.408538818359375 71.66288757324219 0.408782958984375 71.66036224365234 0.409149169921875 71.65677642822266 C 0.4096832275390625 71.65154266357422 0.41064453125 71.64212799072266 0.411163330078125 71.63688659667969 C 0.411651611328125 71.63211059570313 0.4118804931640625 71.62985229492188 0.4123687744140625 71.62507629394531 C 0.41290283203125 71.61983489990234 0.4138336181640625 71.61071014404297 0.41436767578125 71.60546875 C 0.41473388671875 71.60189056396484 0.4149932861328125 71.5992431640625 0.4153594970703125 71.59565734863281 C 0.416168212890625 71.58780670166016 0.4168243408203125 71.58132171630859 0.417633056640625 71.57346343994141 C 0.417877197265625 71.57107543945313 0.418243408203125 71.56748962402344 0.418487548828125 71.56510162353516 C 0.420623779296875 71.54415130615234 0.4226226806640625 71.52470397949219 0.4247894287109375 71.50375366210938 C 0.4247894287109375 71.50375366210938 0.4247894287109375 71.50374603271484 0.4247894287109375 71.50374603271484 C 0.425872802734375 71.49327850341797 0.426910400390625 71.48323822021484 0.4279937744140625 71.47276306152344 C 0.4281158447265625 71.47157287597656 0.4281158447265625 71.47159576416016 0.4282379150390625 71.47040557861328 C 0.4293212890625 71.45993041992188 0.4300537109375 71.45281982421875 0.43115234375 71.44234466552734 C 0.4312744140625 71.44115447998047 0.4315338134765625 71.43860626220703 0.4316558837890625 71.43741607666016 C 0.4327545166015625 71.42694854736328 0.4332733154296875 71.42189025878906 0.4343719482421875 71.41142272949219 C 0.4346160888671875 71.40903472900391 0.4347381591796875 71.40781402587891 0.43499755859375 71.40542602539063 C 0.435546875 71.40019226074219 0.43682861328125 71.38785552978516 0.4373779296875 71.38262176513672 C 0.437744140625 71.37904357910156 0.4380340576171875 71.37628936767578 0.43841552734375 71.37271118164063 C 0.43896484375 71.36747741699219 0.4401702880859375 71.35591888427734 0.4407196044921875 71.35068511962891 C 0.44097900390625 71.34829711914063 0.441253662109375 71.34562683105469 0.4415130615234375 71.34323883056641 C 0.4423370361328125 71.33538818359375 0.443115234375 71.32791900634766 0.4439544677734375 71.320068359375 C 0.4441986083984375 71.31768035888672 0.4445037841796875 71.31485748291016 0.4447479248046875 71.31246948242188 C 0.445587158203125 71.30461883544922 0.4464569091796875 71.29637908935547 0.4472808837890625 71.28853607177734 C 0.4474029541015625 71.28733825683594 0.4478607177734375 71.28302764892578 0.447998046875 71.28183746337891 C 0.448822021484375 71.27398681640625 0.4497528076171875 71.26519012451172 0.450592041015625 71.25734710693359 C 0.4508514404296875 71.25495910644531 0.4509735107421875 71.25369262695313 0.45123291015625 71.25131225585938 C 0.4556884765625 71.20945739746094 0.4597930908203125 71.1710205078125 0.4643096923828125 71.12918090820313 C 0.4647064208984375 71.1256103515625 0.4649200439453125 71.12361907958984 0.465301513671875 71.12004852294922 C 0.466156005859375 71.11219787597656 0.4668121337890625 71.10611724853516 0.4676513671875 71.09827423095703 C 0.4679107666015625 71.09588623046875 0.46826171875 71.09272003173828 0.4685211181640625 71.09033203125 C 0.469085693359375 71.08510589599609 0.4703521728515625 71.07344055175781 0.470916748046875 71.06820678710938 C 0.4713134765625 71.06463623046875 0.4716339111328125 71.06165313720703 0.472015380859375 71.05807495117188 C 0.47259521484375 71.05284881591797 0.4736480712890625 71.04309844970703 0.4742279052734375 71.03787231445313 C 0.4744873046875 71.03549194335938 0.475006103515625 71.03067779541016 0.4752655029296875 71.02828979492188 C 0.4758453369140625 71.02306365966797 0.4770050048828125 71.01233673095703 0.4775848388671875 71.00711059570313 C 0.4779815673828125 71.00353240966797 0.478240966796875 71.00108337402344 0.4786376953125 70.99750518798828 C 0.4794921875 70.98966979980469 0.48046875 70.98075103759766 0.4813385009765625 70.97290802001953 C 0.4814605712890625 70.97171783447266 0.4816131591796875 70.97032165527344 0.48175048828125 70.96912384033203 C 0.4828948974609375 70.95867156982422 0.4836273193359375 70.95200347900391 0.4847869873046875 70.94155120849609 C 0.48492431640625 70.94036102294922 0.485076904296875 70.93898773193359 0.485198974609375 70.93779754638672 C 0.486358642578125 70.92734527587891 0.4873809814453125 70.91803741455078 0.4885406494140625 70.90758514404297 C 0.4885406494140625 70.90758514404297 0.488555908203125 70.90744781494141 0.488555908203125 70.90744781494141 C 0.4920196533203125 70.8760986328125 0.495391845703125 70.84590911865234 0.4989013671875 70.8145751953125 C 0.4991607666015625 70.81218719482422 0.4992523193359375 70.81135559082031 0.4995269775390625 70.80897521972656 C 0.500396728515625 70.80113983154297 0.5014190673828125 70.79210662841797 0.502288818359375 70.78427124023438 C 0.5025634765625 70.78189086914063 0.5029144287109375 70.77873992919922 0.5031890869140625 70.77635955810547 C 0.504058837890625 70.76852416992188 0.5047607421875 70.76226043701172 0.505645751953125 70.75442504882813 C 0.50592041015625 70.75204467773438 0.506378173828125 70.74797058105469 0.50665283203125 70.74559020996094 C 0.5075225830078125 70.73775482177734 0.5083770751953125 70.73027038574219 0.5092620849609375 70.72244262695313 C 0.5095367431640625 70.72006225585938 0.5097503662109375 70.71805572509766 0.5100250244140625 70.71567535400391 C 0.5109100341796875 70.70783996582031 0.51165771484375 70.70122528076172 0.512542724609375 70.69339752197266 C 0.5129547119140625 70.68982696533203 0.51324462890625 70.68724822998047 0.5136566162109375 70.68367767333984 C 0.514251708984375 70.67845916748047 0.5154266357421875 70.66810607910156 0.516021728515625 70.66288757324219 C 0.5162811279296875 70.66050720214844 0.516845703125 70.65563201904297 0.517120361328125 70.65325164794922 C 0.51800537109375 70.64542388916016 0.5186614990234375 70.63975524902344 0.5195465087890625 70.63191986083984 C 0.51995849609375 70.62834930419922 0.5201263427734375 70.62686920166016 0.520538330078125 70.62329864501953 C 0.521728515625 70.61286163330078 0.5222625732421875 70.60819244384766 0.5234527587890625 70.59775543212891 C 0.523590087890625 70.59656524658203 0.523834228515625 70.59451293945313 0.5239715576171875 70.59332275390625 C 0.5287628173828125 70.55157470703125 0.533355712890625 70.51181793212891 0.5382080078125 70.47008514404297 C 0.5383453369140625 70.46889495849609 0.5385894775390625 70.46681213378906 0.538726806640625 70.46562194824219 C 0.5399322509765625 70.45519256591797 0.540496826171875 70.45042419433594 0.5417022705078125 70.43998718261719 C 0.5419921875 70.43761444091797 0.542236328125 70.43549346923828 0.542510986328125 70.43311309814453 C 0.543426513671875 70.42529296875 0.54437255859375 70.41725158691406 0.5452880859375 70.40943145751953 C 0.545562744140625 70.40705108642578 0.54583740234375 70.40473937988281 0.546112060546875 70.40236663818359 C 0.546722412109375 70.39714813232422 0.548187255859375 70.38470458984375 0.548797607421875 70.37949371337891 C 0.549072265625 70.37711334228516 0.5495452880859375 70.37313842773438 0.5498199462890625 70.37075805664063 C 0.5504302978515625 70.36553955078125 0.55181884765625 70.35372924804688 0.5524444580078125 70.3485107421875 C 0.5527191162109375 70.34613800048828 0.5530548095703125 70.34322357177734 0.5533447265625 70.34084320068359 C 0.55426025390625 70.33302307128906 0.55517578125 70.32525634765625 0.5561065673828125 70.31743621826172 C 0.5563812255859375 70.31505584716797 0.556671142578125 70.31262969970703 0.5569610595703125 70.31024932861328 C 0.558197021484375 70.29981994628906 0.5588226318359375 70.29449462890625 0.56005859375 70.28407287597656 C 0.5601959228515625 70.28288269042969 0.5603485107421875 70.28169250488281 0.56048583984375 70.28050231933594 C 0.5614166259765625 70.27268218994141 0.562530517578125 70.26324462890625 0.5634613037109375 70.25543212890625 C 0.563751220703125 70.2530517578125 0.56396484375 70.25118255615234 0.5642547607421875 70.24880218505859 C 0.566741943359375 70.22795867919922 0.5689849853515625 70.20917510986328 0.57147216796875 70.18833160400391 C 0.571624755859375 70.18714904785156 0.57208251953125 70.18333435058594 0.5722198486328125 70.18214416503906 C 0.5731658935546875 70.17433166503906 0.5742034912109375 70.16567230224609 0.57513427734375 70.15785217285156 C 0.5755615234375 70.15428924560547 0.5758514404296875 70.15200042724609 0.5762786865234375 70.1484375 C 0.576904296875 70.14322662353516 0.57794189453125 70.13459777832031 0.5785675048828125 70.12938690185547 C 0.5791473388671875 70.1246337890625 0.5796356201171875 70.12058258056641 0.5802001953125 70.11582946777344 C 0.580841064453125 70.11061859130859 0.58172607421875 70.10328674316406 0.5823516845703125 70.09807586669922 C 0.5827789306640625 70.09451293945313 0.5832366943359375 70.09075164794922 0.58367919921875 70.08718872070313 C 0.5843048095703125 70.08198547363281 0.5854644775390625 70.07247161865234 0.586090087890625 70.06726837158203 C 0.5863800048828125 70.06488800048828 0.5869293212890625 70.06034088134766 0.58721923828125 70.05796813964844 C 0.588165283203125 70.05015563964844 0.589080810546875 70.04273223876953 0.59002685546875 70.03491973876953 C 0.5903167724609375 70.03254699707031 0.590576171875 70.03044128417969 0.5908660888671875 70.02806854248047 C 0.5918121337890625 70.02025604248047 0.5926666259765625 70.0133056640625 0.5936126708984375 70.00550079345703 C 0.593902587890625 70.00312042236328 0.5943450927734375 69.99948883056641 0.594635009765625 69.99711608886719 C 0.5955963134765625 69.98930358886719 0.596527099609375 69.98177337646484 0.59747314453125 69.97396087646484 C 0.5977630615234375 69.97158813476563 0.5980682373046875 69.9691162109375 0.598358154296875 69.96673583984375 C 0.599639892578125 69.95632934570313 0.600341796875 69.95059967041016 0.60162353515625 69.940185546875 C 0.601776123046875 69.93900299072266 0.6018829345703125 69.93813323974609 0.602020263671875 69.93694305419922 C 0.604583740234375 69.91612243652344 0.607086181640625 69.89591979980469 0.6096649169921875 69.87509918212891 C 0.6098175048828125 69.87390899658203 0.6096649169921875 69.87507629394531 0.6098175048828125 69.87389373779297 C 0.6110992431640625 69.86347961425781 0.6121978759765625 69.85468292236328 0.613494873046875 69.84426879882813 C 0.6136322021484375 69.84308624267578 0.613677978515625 69.84282684326172 0.6138153076171875 69.84163665771484 C 0.6151123046875 69.83123016357422 0.6159515380859375 69.82454681396484 0.61724853515625 69.81414031982422 C 0.6173858642578125 69.81295013427734 0.6178741455078125 69.80908966064453 0.6180267333984375 69.80789947509766 C 0.618988037109375 69.80009460449219 0.620025634765625 69.79180908203125 0.621002197265625 69.78400421142578 C 0.621307373046875 69.78163146972656 0.6216278076171875 69.77904510498047 0.621917724609375 69.77667236328125 C 0.6225738525390625 69.77146911621094 0.6240386962890625 69.75980377197266 0.62469482421875 69.75460052490234 C 0.6251373291015625 69.75103759765625 0.625579833984375 69.74748229980469 0.62603759765625 69.74391937255859 C 0.626678466796875 69.73871612548828 0.6278076171875 69.72978210449219 0.6284637451171875 69.72457885742188 C 0.62890625 69.72102355957031 0.6292724609375 69.71811676025391 0.629730224609375 69.71456146240234 C 0.6303863525390625 69.70935821533203 0.631683349609375 69.69906616210938 0.6323394775390625 69.69387054443359 C 0.632781982421875 69.6903076171875 0.6331939697265625 69.68702697753906 0.6336517333984375 69.68346405029297 C 0.634307861328125 69.67826843261719 0.635406494140625 69.66960906982422 0.6360626220703125 69.66440582275391 C 0.636505126953125 69.66085052490234 0.636993408203125 69.65695953369141 0.637451171875 69.65340423583984 C 0.6384429931640625 69.64559936523438 0.638916015625 69.64190673828125 0.639892578125 69.63410949707031 C 0.640350341796875 69.63055419921875 0.6408538818359375 69.62657165527344 0.6413116455078125 69.62301635742188 C 0.6452789306640625 69.59181976318359 0.64892578125 69.56320953369141 0.6529388427734375 69.53202056884766 C 0.653076171875 69.53083801269531 0.6530914306640625 69.53077697753906 0.6532440185546875 69.52959442138672 C 0.654571533203125 69.51919555664063 0.6553497314453125 69.51313781738281 0.6566925048828125 69.50273895263672 C 0.6569976806640625 69.50037384033203 0.657470703125 69.49671173095703 0.65777587890625 69.49433898925781 C 0.658782958984375 69.48654937744141 0.659698486328125 69.47946929931641 0.66070556640625 69.47167205810547 C 0.6610107421875 69.46929931640625 0.66131591796875 69.46691131591797 0.66162109375 69.46453857421875 C 0.662628173828125 69.45674133300781 0.663604736328125 69.44919586181641 0.66461181640625 69.44139862060547 C 0.6649169921875 69.43903350830078 0.6652679443359375 69.43630981445313 0.6655731201171875 69.43394470214844 C 0.666595458984375 69.4261474609375 0.6676025390625 69.41834259033203 0.668609619140625 69.41055297851563 C 0.668914794921875 69.40818023681641 0.669281005859375 69.40545654296875 0.669586181640625 69.40308380126953 C 0.67059326171875 69.39529418945313 0.671417236328125 69.3890380859375 0.67242431640625 69.38124847412109 C 0.672882080078125 69.37769317626953 0.673095703125 69.37603759765625 0.6735687255859375 69.37248229980469 C 0.6745758056640625 69.36469268798828 0.6756591796875 69.35640716552734 0.6766815185546875 69.34861755371094 C 0.6769866943359375 69.34625244140625 0.677154541015625 69.34504699707031 0.677459716796875 69.34268188476563 C 0.6788177490234375 69.33229064941406 0.67950439453125 69.32705688476563 0.6808624267578125 69.31666564941406 C 0.6811676025390625 69.31430053710938 0.68109130859375 69.31495666503906 0.681396484375 69.31259155273438 C 0.6827545166015625 69.30220031738281 0.683868408203125 69.29380035400391 0.6852264404296875 69.28340911865234 C 0.6852264404296875 69.28340911865234 0.685394287109375 69.28211975097656 0.685394287109375 69.28211975097656 C 0.6894989013671875 69.25096130371094 0.6934356689453125 69.22113037109375 0.69757080078125 69.18998718261719 C 0.6978912353515625 69.18761444091797 0.6979522705078125 69.18714141845703 0.6982574462890625 69.18477630615234 C 0.6992950439453125 69.17699432373047 0.700592041015625 69.16725921630859 0.701629638671875 69.15947723388672 C 0.7017822265625 69.15829467773438 0.7022247314453125 69.155029296875 0.7023773193359375 69.15384674072266 C 0.7037506103515625 69.14346313476563 0.7042236328125 69.13994598388672 0.7056121826171875 69.12956237792969 C 0.7059326171875 69.127197265625 0.7063446044921875 69.12403869628906 0.7066650390625 69.12166595458984 C 0.70770263671875 69.11388397216797 0.7087554931640625 69.10609436035156 0.7097930908203125 69.09831237792969 C 0.710113525390625 69.09593963623047 0.710235595703125 69.09498596191406 0.7105560302734375 69.09262084960938 C 0.711944580078125 69.08224487304688 0.7125091552734375 69.07796478271484 0.7139129638671875 69.06758880615234 C 0.7140655517578125 69.06640625 0.7145538330078125 69.06278228759766 0.7147216796875 69.06159973144531 C 0.7161102294921875 69.05122375488281 0.71673583984375 69.04660797119141 0.7181243896484375 69.03623962402344 C 0.71844482421875 69.03386688232422 0.7184295654296875 69.03401947021484 0.71875 69.03165435791016 C 0.7201385498046875 69.02127838134766 0.7208099365234375 69.01631164550781 0.7222137451171875 69.00593566894531 C 0.7225341796875 69.00357055664063 0.722625732421875 69.00289154052734 0.7229461669921875 69.00052642822266 C 0.728546142578125 68.95903015136719 0.7339324951171875 68.91947937011719 0.739593505859375 68.87800598144531 C 0.7397613525390625 68.87682342529297 0.739715576171875 68.87716674804688 0.7398681640625 68.87598419189453 C 0.7412872314453125 68.86561584472656 0.7423553466796875 68.85781860351563 0.7437896728515625 68.84745025634766 C 0.7439422607421875 68.84626770019531 0.7441558837890625 68.84468078613281 0.74432373046875 68.84349822998047 C 0.7457427978515625 68.8331298828125 0.746368408203125 68.82855224609375 0.747802734375 68.81818389892578 C 0.7481231689453125 68.81581878662109 0.74847412109375 68.81333923339844 0.7487945556640625 68.81098175048828 C 0.7498626708984375 68.80320739746094 0.7510528564453125 68.79451751708984 0.75213623046875 68.7867431640625 C 0.752288818359375 68.78556060791016 0.7527618408203125 68.78215789794922 0.7529296875 68.78097534179688 C 0.754364013671875 68.77061462402344 0.754791259765625 68.76743316650391 0.7562255859375 68.75706481933594 C 0.756561279296875 68.75470733642578 0.7568817138671875 68.75235748291016 0.7572021484375 68.74999237060547 C 0.758636474609375 68.73963165283203 0.759246826171875 68.73525238037109 0.76068115234375 68.72489166259766 C 0.7608489990234375 68.72370910644531 0.761138916015625 68.72164154052734 0.7613067626953125 68.720458984375 C 0.7627410888671875 68.71009826660156 0.7637786865234375 68.70256805419922 0.765228271484375 68.69219970703125 C 0.7653961181640625 68.69102478027344 0.765289306640625 68.69178771972656 0.76544189453125 68.69060516357422 C 0.7726593017578125 68.63880157470703 0.7798309326171875 68.58756256103516 0.787139892578125 68.53578948974609 C 0.787139892578125 68.53578948974609 0.7872161865234375 68.53530120849609 0.7872161865234375 68.53530120849609 C 0.7886810302734375 68.52494812011719 0.789886474609375 68.51642608642578 0.791351318359375 68.50607299804688 C 0.7915191650390625 68.50489044189453 0.791839599609375 68.50257873535156 0.7920074462890625 68.50139617919922 C 0.7934722900390625 68.49104309082031 0.794281005859375 68.48533630371094 0.795745849609375 68.47498321533203 C 0.7959136962890625 68.47380065917969 0.796051025390625 68.47290802001953 0.7962188720703125 68.47172546386719 C 0.7976837158203125 68.46138000488281 0.7985687255859375 68.45513916015625 0.800048828125 68.44478607177734 C 0.800384521484375 68.44242858886719 0.8004150390625 68.442138671875 0.800750732421875 68.43977355957031 C 0.8022308349609375 68.42942810058594 0.8028106689453125 68.42533111572266 0.804290771484375 68.41497802734375 C 0.8044586181640625 68.41379547119141 0.8049774169921875 68.41014862060547 0.805145263671875 68.40897369384766 C 0.8062591552734375 68.40120697021484 0.807464599609375 68.39276123046875 0.8085784912109375 68.38499450683594 C 0.8089141845703125 68.38263702392578 0.809234619140625 68.38040924072266 0.8095703125 68.37804412841797 C 0.8110504150390625 68.36769866943359 0.81207275390625 68.36057281494141 0.8135528564453125 68.35022735595703 C 0.8135528564453125 68.35022735595703 0.813720703125 68.34912109375 0.813720703125 68.34912109375 C 0.8152008056640625 68.33876800537109 0.816497802734375 68.32978820800781 0.8179779052734375 68.31944274902344 C 0.8179779052734375 68.31944274902344 0.81817626953125 68.31806182861328 0.81817626953125 68.31806182861328 C 0.8241424560546875 68.27667999267578 0.8299102783203125 68.23683929443359 0.8359222412109375 68.19548034667969 C 0.836090087890625 68.19429779052734 0.8364105224609375 68.19213104248047 0.836578369140625 68.19095611572266 C 0.8380889892578125 68.18061065673828 0.8387908935546875 68.17579650878906 0.840301513671875 68.16545867919922 C 0.84063720703125 68.16310119628906 0.8409271240234375 68.16112518310547 0.841278076171875 68.15876770019531 C 0.8420257568359375 68.15360260009766 0.8437347412109375 68.14193725585938 0.8444976806640625 68.13676452636719 C 0.8450164794921875 68.13323211669922 0.845367431640625 68.13080596923828 0.84588623046875 68.12727355957031 C 0.847015380859375 68.11952209472656 0.8480224609375 68.11266326904297 0.8491668701171875 68.10491180419922 C 0.8495025634765625 68.10255432128906 0.849822998046875 68.10034942626953 0.8501739501953125 68.09799194335938 C 0.851318359375 68.09024047851563 0.8524627685546875 68.08243560791016 0.853607177734375 68.07468414306641 C 0.85394287109375 68.07232666015625 0.854278564453125 68.070068359375 0.8546295166015625 68.06771850585938 C 0.85614013671875 68.05738067626953 0.8569793701171875 68.05175018310547 0.8585052490234375 68.04141998291016 C 0.858673095703125 68.04023742675781 0.858795166015625 68.03946685791016 0.8589630126953125 68.03829193115234 C 0.8665924072265625 67.98661804199219 0.8740234375 67.93655395507813 0.881744384765625 67.88491821289063 C 0.881744384765625 67.88491821289063 0.8822021484375 67.88191986083984 0.8822021484375 67.88191986083984 C 0.8837432861328125 67.87158966064453 0.884765625 67.86474609375 0.886322021484375 67.85442352294922 C 0.8864898681640625 67.85324096679688 0.88665771484375 67.85211944580078 0.8868408203125 67.85094451904297 C 0.8883819580078125 67.84062194824219 0.8892974853515625 67.83454132080078 0.8908538818359375 67.82421875 C 0.8910369873046875 67.82304382324219 0.8913726806640625 67.82073211669922 0.8915557861328125 67.81954956054688 C 0.8931121826171875 67.80922698974609 0.89410400390625 67.80256652832031 0.895660400390625 67.79224395751953 C 0.895660400390625 67.79224395751953 0.8959503173828125 67.79036712646484 0.8959503173828125 67.79036712646484 C 0.8975067138671875 67.78004455566406 0.8985443115234375 67.77312469482422 0.900115966796875 67.76280212402344 C 0.9002838134765625 67.76161956787109 0.900604248046875 67.75955963134766 0.900787353515625 67.75838470458984 C 0.90234375 67.74806213378906 0.9033660888671875 67.74130249023438 0.9049224853515625 67.73097991943359 C 0.9051055908203125 67.72980499267578 0.905120849609375 67.72975921630859 0.9052886962890625 67.72858428955078 C 0.9068603515625 67.71826171875 0.9078521728515625 67.71173095703125 0.909423828125 67.70140838623047 C 0.9095916748046875 67.70023345947266 0.90985107421875 67.69850158691406 0.9100341796875 67.69732666015625 C 0.9163055419921875 67.65604400634766 0.9222412109375 67.61720275878906 0.9285888671875 67.57594299316406 C 0.9289398193359375 67.57359313964844 0.9290771484375 67.57272338867188 0.929443359375 67.57036590576172 C 0.930633544921875 67.56262969970703 0.932159423828125 67.55263519287109 0.9333648681640625 67.54489898681641 C 0.93353271484375 67.54372406005859 0.9339447021484375 67.54105377197266 0.9341278076171875 67.53987884521484 C 0.9353179931640625 67.53214263916016 0.936492919921875 67.5245361328125 0.93768310546875 67.51679992675781 C 0.938232421875 67.51327514648438 0.9386749267578125 67.51046752929688 0.939208984375 67.50694274902344 C 0.9404144287109375 67.49920654296875 0.941375732421875 67.49296569824219 0.94256591796875 67.4852294921875 C 0.94293212890625 67.48287963867188 0.943359375 67.48011016845703 0.9437255859375 67.47776031494141 C 0.94451904296875 67.47260284423828 0.94635009765625 67.46080780029297 0.9471588134765625 67.45565032958984 C 0.94769287109375 67.45212554931641 0.9478759765625 67.45098114013672 0.94842529296875 67.44745635986328 C 0.9500274658203125 67.43714141845703 0.9506683349609375 67.43301391601563 0.9522705078125 67.42269897460938 C 0.95245361328125 67.42152404785156 0.9527587890625 67.41957855224609 0.95294189453125 67.41840362548828 C 0.9545440673828125 67.40808868408203 0.9553680419921875 67.40280914306641 0.95697021484375 67.39250183105469 C 0.95733642578125 67.39015197753906 0.9573516845703125 67.39005279541016 0.9577178955078125 67.38770294189453 C 0.9641571044921875 67.34647369384766 0.970428466796875 67.30652618408203 0.9769134521484375 67.26531982421875 C 0.9769134521484375 67.26531982421875 0.9769439697265625 67.26512908935547 0.9769439697265625 67.26512908935547 C 0.980194091796875 67.24452972412109 0.983245849609375 67.22518920898438 0.98651123046875 67.20459747314453 C 0.9866943359375 67.20342254638672 0.986846923828125 67.20253753662109 0.987030029296875 67.20136260986328 C 0.9886627197265625 67.19106292724609 0.9897003173828125 67.18448638916016 0.9913330078125 67.17418670654297 C 0.9915313720703125 67.17301177978516 0.9917144775390625 67.17185974121094 0.9918975830078125 67.17068481445313 C 0.9935302734375 67.16038513183594 0.99432373046875 67.15543365478516 0.9959564208984375 67.14513397216797 C 0.9963226318359375 67.14279174804688 0.99664306640625 67.14080047607422 0.9970245361328125 67.13845062255859 C 0.9986572265625 67.12815856933594 0.9995574951171875 67.12252807617188 1.001205444335938 67.11222839355469 C 1.001205444335938 67.11222839355469 1.001541137695313 67.110107421875 1.001541137695313 67.110107421875 C 1.003189086914063 67.09981536865234 1.004714965820313 67.09023284912109 1.006362915039063 67.07994079589844 C 1.006362915039063 67.07994079589844 1.006362915039063 67.07991027832031 1.006362915039063 67.07991027832031 C 1.016250610351563 67.01814270019531 1.026123046875 66.95693969726563 1.036148071289063 66.89522552490234 C 1.036331176757813 66.89405059814453 1.03619384765625 66.89497375488281 1.036376953125 66.893798828125 C 1.039718627929688 66.87322998046875 1.04290771484375 66.8536376953125 1.0462646484375 66.83306884765625 C 1.0462646484375 66.83306884765625 1.046295166015625 66.83291625976563 1.046295166015625 66.83291625976563 C 1.059722900390625 66.75064849853516 1.073196411132813 66.66892242431641 1.086883544921875 66.58674621582031 C 1.087081909179688 66.5855712890625 1.086944580078125 66.58641815185547 1.087127685546875 66.58524322509766 C 1.088851928710938 66.57497406005859 1.090240478515625 66.56664276123047 1.091949462890625 66.55637359619141 C 1.091949462890625 66.55637359619141 1.092315673828125 66.55421447753906 1.092315673828125 66.55421447753906 C 1.094024658203125 66.5439453125 1.095199584960938 66.53688812255859 1.096923828125 66.52661895751953 C 1.097122192382813 66.52544403076172 1.097427368164063 66.5235595703125 1.097625732421875 66.52238464355469 C 1.099349975585938 66.51211547851563 1.100433349609375 66.50564575195313 1.102157592773438 66.49537658691406 C 1.102340698242188 66.49420928955078 1.102386474609375 66.49394226074219 1.102584838867188 66.49277496337891 C 1.10430908203125 66.48250579833984 1.1055908203125 66.47491455078125 1.107315063476563 66.46464538574219 C 1.107513427734375 66.46347808837891 1.107528686523438 66.46334075927734 1.10772705078125 66.46216583251953 C 1.121536254882813 66.38002777099609 1.13525390625 66.29924774169922 1.149307250976563 66.21719360351563 C 1.149505615234375 66.21602630615234 1.149261474609375 66.21744537353516 1.149459838867188 66.21627044677734 C 1.151229858398438 66.20601654052734 1.152877807617188 66.19632720947266 1.154647827148438 66.18607330322266 C 1.154647827148438 66.18607330322266 1.1546630859375 66.18595886230469 1.1546630859375 66.18595886230469 C 1.15643310546875 66.17570495605469 1.157760620117188 66.16798400878906 1.159515380859375 66.15773010253906 C 1.159713745117188 66.15656280517578 1.160018920898438 66.15478515625 1.160232543945313 66.15361785888672 C 1.1619873046875 66.14336395263672 1.16339111328125 66.13528442382813 1.1651611328125 66.12503051757813 C 1.1651611328125 66.12503051757813 1.165283203125 66.12427520751953 1.165283203125 66.12427520751953 C 1.17767333984375 66.05250549316406 1.1900634765625 65.98128509521484 1.20263671875 65.90957641601563 C 1.20263671875 65.90957641601563 1.2027587890625 65.90883636474609 1.2027587890625 65.90883636474609 C 1.204559326171875 65.89859771728516 1.2061767578125 65.889404296875 1.207977294921875 65.87915802001953 C 1.207977294921875 65.87915802001953 1.20819091796875 65.8779296875 1.20819091796875 65.8779296875 C 1.209991455078125 65.86769104003906 1.211532592773438 65.85890960693359 1.213348388671875 65.84867095947266 C 1.213546752929688 65.84750366210938 1.213394165039063 65.84837341308594 1.213592529296875 65.84720611572266 C 1.215408325195313 65.83696746826172 1.217025756835938 65.82781219482422 1.218826293945313 65.81757354736328 C 1.219039916992188 65.81640625 1.21875 65.81803894042969 1.218948364257813 65.81687164306641 C 1.227996826171875 65.76567840576172 1.236862182617188 65.71575927734375 1.246002197265625 65.66459655761719 C 1.246200561523438 65.66342926025391 1.246597290039063 65.66123962402344 1.246810913085938 65.66007232666016 C 1.248626708984375 65.64984130859375 1.249649047851563 65.64418792724609 1.251480102539063 65.63395690917969 C 1.251678466796875 65.63278961181641 1.251983642578125 65.63108825683594 1.252197265625 65.62992095947266 C 1.2540283203125 65.61968994140625 1.254928588867188 65.61464691162109 1.25677490234375 65.60441589355469 C 1.257186889648438 65.60208129882813 1.257354736328125 65.60116577148438 1.257766723632813 65.59883880615234 C 1.259613037109375 65.58860778808594 1.260528564453125 65.58348083496094 1.262374877929688 65.57324981689453 C 1.2625732421875 65.57208251953125 1.262832641601563 65.57066345214844 1.263046264648438 65.56949615478516 C 1.264877319335938 65.55927276611328 1.26617431640625 65.55209350585938 1.268020629882813 65.54186248779297 C 1.268234252929688 65.54069519042969 1.268142700195313 65.54120635986328 1.268341064453125 65.5400390625 C 1.286773681640625 65.43776702880859 1.30523681640625 65.3365478515625 1.324050903320313 65.23441314697266 C 1.324050903320313 65.23441314697266 1.324127197265625 65.23398590087891 1.324127197265625 65.23398590087891 C 1.34295654296875 65.13185119628906 1.361892700195313 65.03022766113281 1.381103515625 64.92823028564453 C 1.381103515625 64.92823028564453 1.381195068359375 64.927734375 1.381195068359375 64.927734375 C 1.38311767578125 64.91754150390625 1.384979248046875 64.90766906738281 1.38690185546875 64.89747619628906 C 1.38690185546875 64.89747619628906 1.386932373046875 64.8973388671875 1.386932373046875 64.8973388671875 C 1.446609497070313 64.58118438720703 1.508102416992188 64.26592254638672 1.571502685546875 63.95109558105469 C 1.571731567382813 63.94993591308594 1.571334838867188 63.95193481445313 1.571563720703125 63.95077514648438 C 1.587921142578125 63.86952972412109 1.604095458984375 63.78984832763672 1.620697021484375 63.70869445800781 C 1.620941162109375 63.70753479003906 1.62127685546875 63.70587921142578 1.62152099609375 63.70472717285156 C 1.62359619140625 63.694580078125 1.624847412109375 63.68843078613281 1.626922607421875 63.67829132080078 C 1.627166748046875 63.67713165283203 1.6273193359375 63.67635345458984 1.6275634765625 63.67520141601563 C 1.629638671875 63.66505432128906 1.631134033203125 63.65777587890625 1.633224487304688 63.64762878417969 C 1.633453369140625 63.64647674560547 1.633438110351563 63.6466064453125 1.6336669921875 63.64545440673828 C 1.635757446289063 63.63531494140625 1.637481689453125 63.62688446044922 1.639572143554688 63.61674499511719 C 1.639572143554688 63.61674499511719 1.639816284179688 63.61557769775391 1.639816284179688 63.61557769775391 C 1.64190673828125 63.60543823242188 1.643783569335938 63.59629058837891 1.6458740234375 63.58615112304688 C 1.6458740234375 63.58615112304688 1.646026611328125 63.58540344238281 1.646026611328125 63.58540344238281 C 1.702499389648438 63.31165313720703 1.760284423828125 63.03876495361328 1.819549560546875 62.76604461669922 C 1.819549560546875 62.76604461669922 1.819625854492188 62.76569366455078 1.819625854492188 62.76569366455078 C 1.821823120117188 62.75559234619141 1.823776245117188 62.74656677246094 1.82598876953125 62.73646545410156 C 1.82623291015625 62.73531341552734 1.826171875 62.73561096191406 1.826416015625 62.73445892333984 C 1.82861328125 62.72435760498047 1.830551147460938 62.7154541015625 1.832763671875 62.70536041259766 C 1.832763671875 62.70536041259766 1.832778930664063 62.70529937744141 1.832778930664063 62.70529937744141 C 1.834976196289063 62.69519805908203 1.83709716796875 62.68547058105469 1.839309692382813 62.67536926269531 C 1.839309692382813 62.67536926269531 1.839431762695313 62.67481231689453 1.839431762695313 62.67481231689453 C 5.495834350585938 45.94271850585938 14.4005126953125 31.17591857910156 26.74417114257813 20.18377685546875 L 41.33161163330078 32.93465423583984 L 34.75040435791016 40.46378326416016 C 25.23844909667969 51.34577941894531 19.99998474121094 65.31111145019531 19.99998474121094 79.78723907470703 C 19.99998474121094 112.7540283203125 46.82044982910156 139.5744934082031 79.78723907470703 139.5744934082031 C 112.7540283203125 139.5744934082031 139.5744934082031 112.7540283203125 139.5744934082031 79.78723907470703 C 139.5744934082031 46.82044982910156 112.7540283203125 19.99998474121094 79.78723907470703 19.99998474121094 L 69.78723907470703 19.99998474121094 L 69.78723907470703 0.62060546875 C 73.06240081787109 0.211151123046875 76.40111541748047 -1.52587890625e-05 79.78723907470703 -1.52587890625e-05 Z" stroke="none" fill="#00b69b"/>
        </g>
      </g>
    </g>
    <text id="COMPLIANT" transform="translate(39.126 98.29)" fill="#dcdcdc" font-size="14" font-family="NunitoSans-Bold, Nunito Sans" font-weight="700"><tspan x="0" y="0">COMPLIANT</tspan></text>
  </g>
</svg>
