<svg id="Ãðóïïà_3_êîïèÿ_" data-name="Ãðóïïà 3 (êîïèÿ)" xmlns="http://www.w3.org/2000/svg" viewBox="0 0 336.41 263.74">
  <defs>
    <style>
      .cls-1 {
        fill: #e9e9e9;
      }

      .cls-1, .cls-10, .cls-2, .cls-3, .cls-4, .cls-5, .cls-6, .cls-7, .cls-8, .cls-9 {
        fill-rule: evenodd;
      }

      .cls-2 {
        fill: #3bed58;
      }

      .cls-3 {
        fill: #93ef86;
      }

      .cls-4 {
        fill: #eaef3a;
      }

      .cls-5 {
        fill: #f4b30f;
      }

      .cls-6 {
        fill: #f67011;
      }

      .cls-7 {
        fill: #f45316;
      }

      .cls-8 {
        fill: #f23a1a;
      }

      .cls-9 {
        fill: #e7251d;
      }

      .cls-10 {
        fill: #7a7a7a;
      }
    </style>
  </defs>
  <g id="Ôèãóðà_6" data-name="Ôèãóðà 6">
    <path class="cls-1" d="M405,222.14A168.25,168.25,0,0,0,87.71,332a166.75,166.75,0,0,0,16.69,39.92,15.05,15.05,0,0,0,2.42,3.16,22.95,22.95,0,0,0,29,5.05l26.48-15.29a23,23,0,0,0,10.2-27.39,15.37,15.37,0,0,0-1.31-2.82,91.75,91.75,0,1,1,157.63,0,15.56,15.56,0,0,0-1.35,2.93,23,23,0,0,0,10.25,27.23l26.49,15.29a22.91,22.91,0,0,0,28.87-4.92,15.33,15.33,0,0,0,2.54-3.27A168.55,168.55,0,0,0,405,222.14Zm-.06,107.8A159.7,159.7,0,0,1,389,368a7.66,7.66,0,0,1-1.49,1.84A15.29,15.29,0,0,1,368,373.45l-26.48-15.29A15.32,15.32,0,0,1,334.69,340a7.52,7.52,0,0,1,.68-1.47,99.39,99.39,0,1,0-170.77,0,7.53,7.53,0,0,1,.66,1.41,15.31,15.31,0,0,1-6.8,18.25L132,373.46a15.31,15.31,0,0,1-19.54-3.64A7.73,7.73,0,0,1,111,368a160.53,160.53,0,1,1,293.91-38.1Z" transform="translate(-81.8 -119.41)"/>
  </g>
  <g id="Ôèãóðà_1_êîïèÿ_41" data-name="Ôèãóðà 1 (êîïèÿ) 41">
    <path class="cls-2" d="M143.11,287.67H97.24a152.19,152.19,0,0,0,20.54,76.59l.08-.17a7.64,7.64,0,0,0,10.44,2.8l26.49-15.29a7.64,7.64,0,0,0,3.38-9.16A106.56,106.56,0,0,1,143.11,287.67Z" transform="translate(-81.8 -119.41)"/>
  </g>
  <g id="Ôèãóðà_1_êîïèÿ_42" data-name="Ôèãóðà 1 (êîïèÿ) 42">
    <path class="cls-3" d="M97.24,287.67h45.87a106.51,106.51,0,0,1,14.33-53.52l-39.73-22.94A152.14,152.14,0,0,0,97.24,287.67Z" transform="translate(-81.8 -119.41)"/>
  </g>
  <g id="Ôèãóðà_1_êîïèÿ_43" data-name="Ôèãóðà 1 (êîïèÿ) 43">
    <path class="cls-4" d="M117.71,211.21l39.73,22.94A107.56,107.56,0,0,1,196.63,195l-22.94-39.73A153.62,153.62,0,0,0,117.71,211.21Z" transform="translate(-81.8 -119.41)"/>
  </g>
  <g id="Ôèãóðà_1_êîïèÿ_44" data-name="Ôèãóðà 1 (êîïèÿ) 44">
    <path class="cls-5" d="M250.15,134.76a152.15,152.15,0,0,0-76.46,20.48L196.63,195a106.54,106.54,0,0,1,53.52-14.33Z" transform="translate(-81.8 -119.41)"/>
  </g>
  <g id="Ôèãóðà_1_êîïèÿ_45" data-name="Ôèãóðà 1 (êîïèÿ) 45">
    <path class="cls-6" d="M326.62,155.23a152.18,152.18,0,0,0-76.47-20.47v45.88A106.57,106.57,0,0,1,303.68,195Z" transform="translate(-81.8 -119.41)"/>
  </g>
  <g id="Ôèãóðà_1_êîïèÿ_46" data-name="Ôèãóðà 1 (êîïèÿ) 46">
    <path class="cls-7" d="M342.86,234.15l39.73-22.94a153.77,153.77,0,0,0-56-56L303.68,195A107.64,107.64,0,0,1,342.86,234.15Z" transform="translate(-81.8 -119.41)"/>
  </g>
  <g id="Ôèãóðà_1_êîïèÿ_47" data-name="Ôèãóðà 1 (êîïèÿ) 47">
    <path class="cls-8" d="M403.07,287.67a152.28,152.28,0,0,0-20.48-76.46l-39.73,22.94a106.54,106.54,0,0,1,14.33,53.52Z" transform="translate(-81.8 -119.41)"/>
  </g>
  <g id="Ôèãóðà_1_êîïèÿ_48" data-name="Ôèãóðà 1 (êîïèÿ) 48">
    <path class="cls-9" d="M342.12,342.42a7.66,7.66,0,0,0,3.38,9.18L372,366.89a7.64,7.64,0,0,0,10.44-2.8l.1.17a152.19,152.19,0,0,0,20.54-76.59H357.19A106.47,106.47,0,0,1,342.12,342.42Z" transform="translate(-81.8 -119.41)"/>
  </g>
  <g id="Ôèãóðà_12" data-name="Ôèãóðà 12">
    <path class="cls-10" d="M273.09,234.16,250.15,157.7l-22.93,76.46,22.93-3.83Zm-22.94,7.64A45.88,45.88,0,1,0,296,287.67,45.87,45.87,0,0,0,250.15,241.8Z" transform="translate(-81.8 -119.41)"/>
  </g>
  <g id="Ôèãóðà_11" data-name="Ôèãóðà 11">
    <path class="cls-1" d="M250.15,226.51a61.17,61.17,0,1,0,61.17,61.16A61.16,61.16,0,0,0,250.15,226.51Zm0,114.68a53.52,53.52,0,1,1,53.52-53.52A53.52,53.52,0,0,1,250.15,341.19Z" transform="translate(-81.8 -119.41)"/>
  </g>
</svg>
