<svg xmlns="http://www.w3.org/2000/svg" width="60" height="60" viewBox="0 0 60 60">
  <g id="Group_500" data-name="Group 500" transform="translate(-21 -21)">
    <g id="Icon" transform="translate(21 21)">
      <path id="Circle_2" data-name="Circle 2" d="M23,60A23,23,0,0,1,0,37V23A23,23,0,0,1,23,0H37A23,23,0,0,1,60,23V37A23,23,0,0,1,37,60Z" fill="#fec53d" opacity="0.843"/>
    </g>
    <g id="exec_summery_icon" data-name="exec summery icon" transform="translate(40 36)">
      <path id="Path_531" data-name="Path 531" d="M.5,30.587H22.7a.536.536,0,0,0,.5-.565V18.543l7.11-7.11a.532.532,0,0,0,.007-.752L27.494,7.848a.548.548,0,0,0-.765,0l-3.522,3.5v-5.4a.518.518,0,0,0-.141-.376L17.691.172A.528.528,0,0,0,17.322,0H.5A.535.535,0,0,0,0,.564V30.022a.535.535,0,0,0,.5.565ZM17.482,19.058,19.121,20.7l-2.462.823ZM20.1,20.175l-2.1-2.1,6.75-6.735,2.087,2.087Zm7.016-11.2L29.2,11.057l-1.611,1.615-2.085-2.085ZM17.887,1.849l3.534,3.537H17.887ZM1.064,1.063H16.823V5.947a.48.48,0,0,0,.5.5h4.821V12.41L16.859,17.7a.476.476,0,0,0-.121.2l-.75,2.255H4.5a.532.532,0,1,0,0,1.064H15.633l-.321.971a.521.521,0,0,0,.128.538c.037.037.08.086.125.086H4.5a.532.532,0,1,0,0,1.064H18.665a.532.532,0,0,0,0-1.064H16.092l4.182-1.386a.466.466,0,0,0,.193-.123l1.676-1.689v9.914H1.064Zm0,0" fill="#fff"/>
      <path id="Path_532" data-name="Path 532" d="M74.394,383H60.231a.532.532,0,1,0,0,1.064H74.394a.532.532,0,0,0,0-1.064Zm0,0" transform="translate(-55.729 -357.533)" fill="#fff"/>
      <path id="Path_533" data-name="Path 533" d="M60.231,264.064h7.514a.532.532,0,1,0,0-1.064H60.231a.532.532,0,0,0,0,1.064Zm0,0" transform="translate(-55.73 -245.513)" fill="#fff"/>
    </g>
  </g>
</svg>
