<svg id="Icon" xmlns="http://www.w3.org/2000/svg" width="60" height="60" viewBox="0 0 60 60">
  <path id="Circle_2" data-name="Circle 2" d="M23,60A23,23,0,0,1,0,37V23A23,23,0,0,1,23,0H37A23,23,0,0,1,60,23V37A23,23,0,0,1,37,60Z" fill="#8280ff" opacity="0.843"/>
  <g id="vulnerability_icon_2" data-name="vulnerability icon 2" transform="translate(-18 11)">
    <path id="Path_56" data-name="Path 56" d="M235.19,271.059a1.7,1.7,0,0,0-1.1,2.99,1.161,1.161,0,1,0,2.2,0A1.7,1.7,0,0,0,235.19,271.059Z" transform="translate(-187.275 -250.681)" fill="#fff"/>
    <path id="Path_57" data-name="Path 57" d="M62.576,29.63V23.775a1.13,1.13,0,0,0-1.128-1.132H55.81V20.378h5.639a1.13,1.13,0,0,0,1.128-1.132V6.6a3.383,3.383,0,1,0-2.255,0V18.114H55.81V16.982a1.13,1.13,0,0,0-1.128-1.132H44.533v-3.4a3.384,3.384,0,1,1,6.766.075,1.129,1.129,0,1,0,2.255-.075,5.639,5.639,0,1,0-11.277,0v3.4H41.149a1.13,1.13,0,0,0-1.128,1.132v3.4H35.511V8.862a3.383,3.383,0,1,0-2.255,0V21.51a1.13,1.13,0,0,0,1.128,1.132h5.639v2.264H34.383a1.13,1.13,0,0,0-1.128,1.132v5.855a3.383,3.383,0,1,0,2.255,0V27.171h4.511V28.3a1.13,1.13,0,0,0,1.128,1.132H54.682A1.13,1.13,0,0,0,55.81,28.3v-3.4H60.32V29.63a3.383,3.383,0,1,0,2.255,0ZM61.448,2.264A1.132,1.132,0,1,1,60.32,3.4,1.131,1.131,0,0,1,61.448,2.264ZM34.383,4.529a1.132,1.132,0,1,1-1.128,1.132A1.131,1.131,0,0,1,34.383,4.529Zm0,31.7A1.132,1.132,0,1,1,35.511,35.1,1.131,1.131,0,0,1,34.383,36.228Zm19.171-9.057H42.277V18.114H53.554Zm7.894,6.793a1.132,1.132,0,1,1,1.128-1.132A1.131,1.131,0,0,1,61.448,33.964Z" transform="translate(0)" fill="#fff"/>
  </g>
</svg>
