<svg xmlns="http://www.w3.org/2000/svg" width="60" height="60" viewBox="0 0 60 60">
  <g id="Group_498" data-name="Group 498" transform="translate(-186 -16)">
    <g id="Icon" transform="translate(186 16)">
      <path id="Circle_2" data-name="Circle 2" d="M23,60A23,23,0,0,1,0,37V23A23,23,0,0,1,23,0H37A23,23,0,0,1,60,23V37A23,23,0,0,1,37,60Z" fill="#ff9066" opacity="0.847"/>
    </g>
    <g id="Action_recommend_icon" data-name="Action recommend icon" transform="translate(200.332 30.337)">
      <g id="Group_481" data-name="Group 481" transform="translate(15.232 14.555)">
        <g id="Group_480" data-name="Group 480">
          <path id="Path_559" data-name="Path 559" d="M252.621,240.6a.606.606,0,1,0,0,.856A.605.605,0,0,0,252.621,240.6Z" transform="translate(-251.587 -240.418)" fill="#fff"/>
        </g>
      </g>
      <g id="Group_483" data-name="Group 483" transform="translate(18.805 6.14)">
        <g id="Group_482" data-name="Group 482">
          <path id="Path_560" data-name="Path 560" d="M315.769,102.3a3.027,3.027,0,1,0,0,4.281A3.026,3.026,0,0,0,315.769,102.3Zm-.856,3.425a1.816,1.816,0,1,1,0-2.569A1.819,1.819,0,0,1,314.913,105.727Z" transform="translate(-310.603 -101.415)" fill="#fff"/>
        </g>
      </g>
      <g id="Group_485" data-name="Group 485" transform="translate(5.814 0)">
        <g id="Group_484" data-name="Group 484">
          <path id="Path_561" data-name="Path 561" d="M121.024.177a.6.6,0,0,0-.45-.177,26.894,26.894,0,0,0-7.27,1.505,20.269,20.269,0,0,0-7.691,4.665c-.448.448-.884.923-1.3,1.416a4.437,4.437,0,0,0-4.562-.263c-2.305,1.234-3.732,4.584-3.732,6.98a.606.606,0,0,0,1.034.428,3.854,3.854,0,0,1,3.205-1.075l.212.212a21.293,21.293,0,0,0-1,2.94,1.714,1.714,0,0,0,.073,1.052,5.733,5.733,0,0,0-1.635,1.153c-1.558,1.558-1.875,5.356-1.888,5.517a.605.605,0,0,0,.6.653l.048,0c.161-.013,3.959-.329,5.517-1.887a5.734,5.734,0,0,0,1.152-1.635,1.71,1.71,0,0,0,1.052.073,21.3,21.3,0,0,0,2.94-1l.212.212a3.854,3.854,0,0,1-1.075,3.205.605.605,0,0,0,.428,1.033c2.4,0,5.746-1.427,6.98-3.732a4.437,4.437,0,0,0-.263-4.562c.493-.417.968-.853,1.416-1.3A20.271,20.271,0,0,0,119.7,7.9,26.9,26.9,0,0,0,121.2.627.606.606,0,0,0,121.024.177ZM97.372,13a7,7,0,0,1,2.95-4.61,3.226,3.226,0,0,1,3.224.152A24.478,24.478,0,0,0,101,12.69a.638.638,0,0,0-.32-.188A5.174,5.174,0,0,0,97.372,13Zm3.961,9.436c-.832.832-2.785,1.271-4.019,1.451.179-1.234.618-3.187,1.451-4.019a4.363,4.363,0,0,1,1.55-1.019l2.037,2.037A4.362,4.362,0,0,1,101.332,22.438Zm2.76-1.878a.568.568,0,0,1-.529-.172L102.378,19.2l-1.564-1.564a.568.568,0,0,1-.172-.529A19.658,19.658,0,0,1,101.4,14.8L106.4,19.8A19.645,19.645,0,0,1,104.092,20.56Zm8.718.32a7,7,0,0,1-4.61,2.95,5.153,5.153,0,0,0,.5-3.325.632.632,0,0,0-.184-.306,24.487,24.487,0,0,0,4.146-2.544A3.226,3.226,0,0,1,112.81,20.88Zm1.365-6.147a21.974,21.974,0,0,1-1.746,1.566,23.259,23.259,0,0,1-4.826,2.992L101.911,13.6A23.256,23.256,0,0,1,104.9,8.773a21.97,21.97,0,0,1,1.566-1.746,18.878,18.878,0,0,1,6.882-4.248l5.073,5.073A18.876,18.876,0,0,1,114.175,14.732Zm4.684-8.159-4.232-4.232a27.218,27.218,0,0,1,5.312-1.081A27.223,27.223,0,0,1,118.86,6.574Z" transform="translate(-96.018 0)" fill="#fff"/>
        </g>
      </g>
      <g id="Group_487" data-name="Group 487" transform="translate(11.808 24.829)">
        <g id="Group_486" data-name="Group 486">
          <path id="Path_562" data-name="Path 562" d="M197.766,410.3a.606.606,0,0,0-.856,0l-1.712,1.713a.605.605,0,0,0,.856.856l1.712-1.713A.605.605,0,0,0,197.766,410.3Z" transform="translate(-195.021 -410.121)" fill="#fff"/>
        </g>
      </g>
      <g id="Group_489" data-name="Group 489" transform="translate(3.246 16.267)">
        <g id="Group_488" data-name="Group 488">
          <path id="Path_563" data-name="Path 563" d="M56.338,268.879a.605.605,0,0,0-.856,0l-1.713,1.712a.605.605,0,1,0,.856.856l1.713-1.712A.605.605,0,0,0,56.338,268.879Z" transform="translate(-53.592 -268.701)" fill="#fff"/>
        </g>
      </g>
      <g id="Group_491" data-name="Group 491" transform="translate(5.138 25.685)">
        <g id="Group_490" data-name="Group 490">
          <path id="Path_564" data-name="Path 564" d="M89.986,424.448a.606.606,0,0,0-.856,0l-4.1,4.1a.605.605,0,0,0,.856.856l4.1-4.1A.605.605,0,0,0,89.986,424.448Z" transform="translate(-84.851 -424.271)" fill="#fff"/>
        </g>
      </g>
      <g id="Group_493" data-name="Group 493" transform="translate(0.295 25.685)">
        <g id="Group_492" data-name="Group 492">
          <path id="Path_565" data-name="Path 565" d="M9.986,424.448a.606.606,0,0,0-.856,0l-4.1,4.1a.605.605,0,0,0,.856.856l4.1-4.1A.605.605,0,0,0,9.986,424.448Z" transform="translate(-4.851 -424.271)" fill="#fff"/>
        </g>
      </g>
      <g id="Group_495" data-name="Group 495" transform="translate(0.001 20.548)">
        <g id="Group_494" data-name="Group 494">
          <path id="Path_566" data-name="Path 566" d="M5.135,339.587a.605.605,0,0,0-.856,0l-4.1,4.1a.605.605,0,1,0,.856.856l4.1-4.1A.605.605,0,0,0,5.135,339.587Z" transform="translate(-0.001 -339.41)" fill="#fff"/>
        </g>
      </g>
      <g id="Group_497" data-name="Group 497" transform="translate(16.945 11.986)">
        <g id="Group_496" data-name="Group 496">
          <path id="Path_567" data-name="Path 567" d="M281.761,198.168a.605.605,0,0,0-.856,0l-.856.856a.605.605,0,0,0,.856.856l.856-.856A.605.605,0,0,0,281.761,198.168Z" transform="translate(-279.871 -197.99)" fill="#fff"/>
        </g>
      </g>
    </g>
  </g>
</svg>
