<svg id="Icon" xmlns="http://www.w3.org/2000/svg" width="60" height="60" viewBox="0 0 60 60">
  <path id="Circle_2" data-name="Circle 2" d="M23,60A23,23,0,0,1,0,37V23A23,23,0,0,1,23,0H37A23,23,0,0,1,60,23V37A23,23,0,0,1,37,60Z" fill="#00b69b" opacity="0.84"/>
  <path id="critical_assets_icon" data-name="critical assets icon" d="M26.867,16A10.867,10.867,0,1,0,7.984,23.329L5.673,25.64a.533.533,0,0,0,.754.754L8.741,24.08A10.861,10.861,0,0,0,26.867,16Zm-5.623-.533H16.533V6.7A12.069,12.069,0,0,1,21.244,15.467ZM15.467,6.215v9.252h-4.71A11.581,11.581,0,0,1,13.7,8.394a.533.533,0,0,0-.8-.7,12.626,12.626,0,0,0-3.208,7.775H6.215A9.814,9.814,0,0,1,15.467,6.215ZM6.215,16.533H9.689a12.976,12.976,0,0,0,4.529,9.1A9.819,9.819,0,0,1,6.215,16.533Zm4.541,0h4.711v8.761A11.956,11.956,0,0,1,10.756,16.533Zm5.778,9.252V16.533h4.71a11.622,11.622,0,0,1-3.125,7.276.533.533,0,1,0,.789.718,12.665,12.665,0,0,0,3.4-7.994H24a.533.533,0,1,0,0-1.067H22.311a12.979,12.979,0,0,0-4.527-9.1,9.8,9.8,0,0,1-1.251,19.422ZM28,27.308,25.41,24.723a.533.533,0,0,0-.754.754l2.6,2.6a2.566,2.566,0,1,0,.74-.769Zm1.438,3.625a1.5,1.5,0,1,1,1.5-1.5A1.5,1.5,0,0,1,29.433,30.933ZM3.923,4.744l2.6,2.6a.533.533,0,1,0,.754-.754L4.692,4a2.567,2.567,0,1,0-.769.74ZM2.567,1.067a1.5,1.5,0,1,1-1.5,1.5A1.5,1.5,0,0,1,2.567,1.067Zm0,25.8a2.567,2.567,0,1,0,2.567,2.567A2.57,2.57,0,0,0,2.567,26.867Zm0,4.067a1.5,1.5,0,1,1,1.5-1.5A1.5,1.5,0,0,1,2.567,30.933ZM25.41,7.277,28,4.692a2.567,2.567,0,1,0-.74-.769l-2.6,2.6a.533.533,0,0,0,.754.754Zm4.023-6.21a1.5,1.5,0,1,1-1.5,1.5A1.5,1.5,0,0,1,29.433,1.067Z" transform="translate(14 14)" fill="#fff"/>
</svg>
