<svg id="Icon" xmlns="http://www.w3.org/2000/svg" width="60" height="60" viewBox="0 0 60 60">
  <path id="Circle_2" data-name="Circle 2" d="M23,60A23,23,0,0,1,0,37V23A23,23,0,0,1,23,0H37A23,23,0,0,1,60,23V37A23,23,0,0,1,37,60Z" fill="#fec53d" opacity="0.85"/>
  <g id="penetration_icon" data-name="penetration icon" transform="translate(12 -6.39)">
    <path id="Path_58" data-name="Path 58" d="M32.836,20H3.164A3.168,3.168,0,0,0,0,23.164V50.023a3.168,3.168,0,0,0,3.164,3.164H32.836A3.168,3.168,0,0,0,36,50.023V23.164A3.168,3.168,0,0,0,32.836,20ZM3.164,22.109H32.836a1.056,1.056,0,0,1,1.055,1.055v5.273H2.109V23.164A1.056,1.056,0,0,1,3.164,22.109ZM32.836,51.078H3.164a1.056,1.056,0,0,1-1.055-1.055V30.547H33.89V50.023A1.056,1.056,0,0,1,32.836,51.078Z" fill="#fff"/>
    <circle id="Ellipse_7" data-name="Ellipse 7" cx="1" cy="1" r="1" transform="translate(30 24.39)" fill="#fff"/>
    <circle id="Ellipse_8" data-name="Ellipse 8" cx="1" cy="1" r="1" transform="translate(25 24.39)" fill="#fff"/>
    <ellipse id="Ellipse_9" data-name="Ellipse 9" cx="0.5" cy="1" rx="0.5" ry="1" transform="translate(22 24.39)" fill="#fff"/>
    <path id="Path_59" data-name="Path 59" d="M164.781,212.875h-1.055a6.047,6.047,0,0,0-.108-1.916l.889-.889a1.055,1.055,0,1,0-1.492-1.492l-.823.822-.084-.033V208.8a3.8,3.8,0,0,0-7.594,0v.66c-.038.018-.075.037-.112.057l-.935-.935a1.055,1.055,0,0,0-1.492,1.492l1.172,1.172a9.254,9.254,0,0,0-.04,1.633h-1.055a1.055,1.055,0,0,0,0,2.109h1.055a6.178,6.178,0,0,0,.184,1.84l-.965.965a1.055,1.055,0,0,0,1.492,1.492l.486-.486a5.3,5.3,0,0,0,8.223,0l.486.486a1.055,1.055,0,0,0,1.492-1.492l-.965-.965a6.177,6.177,0,0,0,.184-1.84h1.055a1.055,1.055,0,1,0,0-2.109Zm-6.469-5.766A1.689,1.689,0,0,1,160,208.8v.422h-3.375V208.8A1.689,1.689,0,0,1,158.312,207.109Zm1.125,11.364v-3.489a1.055,1.055,0,0,0-2.109,0v3.465a3.2,3.2,0,0,1-2.109-3.008V211.68a.352.352,0,0,1,.352-.352h5.7a.362.362,0,0,1,.352.352v3.762A3.2,3.2,0,0,1,159.437,218.473Z" transform="translate(-140.383 -171.992)" fill="#fff"/>
    <path id="Path_60" data-name="Path 60" d="M61.055,82.109h6.539a1.055,1.055,0,0,0,0-2.109H61.055a1.055,1.055,0,0,0,0,2.109Z" transform="translate(-55.781 -55.781)" fill="#fff"/>
  </g>
</svg>
