<svg xmlns="http://www.w3.org/2000/svg" width="60" height="60" viewBox="0 0 60 60">
  <g id="Group_501" data-name="Group 501" transform="translate(-21 -21)">
    <g id="Group_500" data-name="Group 500">
      <g id="Icon" transform="translate(21 21)">
        <path id="Circle_2" data-name="Circle 2" d="M23,60A23,23,0,0,1,0,37V23A23,23,0,0,1,23,0H37A23,23,0,0,1,60,23V37A23,23,0,0,1,37,60Z" fill="#8280ff" opacity="0.843"/>
      </g>
      <g id="exec_summery_icon" data-name="exec summery icon" transform="translate(41 36)">
        <path id="Path_531" data-name="Path 531" d="M.5,30.657H22.757a.538.538,0,0,0,.5-.566V18.585l7.126-7.127a.533.533,0,0,0,.007-.753L27.557,7.866a.55.55,0,0,0-.767,0l-3.53,3.509V5.961a.519.519,0,0,0-.141-.377L17.731.172A.529.529,0,0,0,17.361,0H.5A.536.536,0,0,0,0,.566V30.091a.536.536,0,0,0,.5.566ZM17.522,19.1l1.643,1.643-2.468.825Zm2.629,1.12-2.107-2.106,6.766-6.751L26.9,13.456ZM27.184,9l2.086,2.086L27.655,12.7l-2.089-2.09ZM17.928,1.853,21.47,5.4H17.928ZM1.066,1.066h15.8v4.9a.481.481,0,0,0,.5.5h4.832v5.975l-5.3,5.3a.477.477,0,0,0-.121.2l-.752,2.26H4.512a.533.533,0,1,0,0,1.066H15.669l-.321.973a.523.523,0,0,0,.129.54c.037.037.08.087.125.087H4.512a.533.533,0,1,0,0,1.066h14.2a.533.533,0,0,0,0-1.066H16.129L20.32,21.47a.467.467,0,0,0,.193-.123l1.679-1.693v9.937H1.066Zm0,0" fill="#fff"/>
        <path id="Path_532" data-name="Path 532" d="M74.428,383h-14.2a.533.533,0,1,0,0,1.066h14.2a.533.533,0,0,0,0-1.066Zm0,0" transform="translate(-55.72 -357.475)" fill="#fff"/>
        <path id="Path_533" data-name="Path 533" d="M60.232,264.066h7.531a.533.533,0,1,0,0-1.066H60.232a.533.533,0,0,0,0,1.066Zm0,0" transform="translate(-55.72 -245.472)" fill="#fff"/>
      </g>
    </g>
  </g>
</svg>
