<svg xmlns="http://www.w3.org/2000/svg" width="60" height="60" viewBox="0 0 60 60">
  <g id="Group_502" data-name="Group 502" transform="translate(-21 -21)">
    <g id="Icon" transform="translate(21 21)">
      <path id="Circle_2" data-name="Circle 2" d="M23,60A23,23,0,0,1,0,37V23A23,23,0,0,1,23,0H37A23,23,0,0,1,60,23V37A23,23,0,0,1,37,60Z" fill="#00b69b" opacity="0.843"/>
    </g>
    <g id="exec_summery_icon" data-name="exec summery icon" transform="translate(41 36)">
      <path id="Path_531" data-name="Path 531" d="M.5,30.639H22.743a.537.537,0,0,0,.5-.566v-11.5l7.122-7.122a.533.533,0,0,0,.007-.753L27.541,7.861a.549.549,0,0,0-.767,0l-3.528,3.507V5.957A.519.519,0,0,0,23.1,5.58L17.721.172A.529.529,0,0,0,17.351,0H.5A.536.536,0,0,0,0,.565V30.073a.536.536,0,0,0,.5.566ZM17.512,19.09l1.642,1.642-2.466.825Zm2.627,1.12L18.034,18.1,24.8,11.358l2.09,2.09ZM27.167,8.991l2.085,2.085-1.614,1.618L25.55,10.605Zm-9.25-7.14,3.54,3.543h-3.54ZM1.066,1.065H16.852V5.957a.481.481,0,0,0,.5.5H22.18v5.971l-5.292,5.3a.476.476,0,0,0-.121.2l-.751,2.258H4.509a.533.533,0,1,0,0,1.066h11.15l-.321.973a.522.522,0,0,0,.129.539c.037.037.08.087.125.087H4.509a.533.533,0,1,0,0,1.066H18.7a.533.533,0,0,0,0-1.066H16.12l4.189-1.389a.467.467,0,0,0,.193-.123l1.678-1.692v9.931H1.066Zm0,0" transform="translate(-1)" fill="#fff"/>
      <path id="Path_532" data-name="Path 532" d="M74.419,383H60.232a.533.533,0,0,0,0,1.066H74.419a.533.533,0,0,0,0-1.066Zm0,0" transform="translate(-55.723 -357.49)" fill="#fff"/>
      <path id="Path_533" data-name="Path 533" d="M60.232,264.066h7.527a.533.533,0,1,0,0-1.066H60.232a.533.533,0,1,0,0,1.066Zm0,0" transform="translate(-55.723 -245.483)" fill="#fff"/>
    </g>
  </g>
</svg>
