<svg xmlns="http://www.w3.org/2000/svg" width="11.069" height="13.596" viewBox="0 0 11.069 13.596">
  <g id="pdf-file" transform="translate(-44.806)">
    <path id="Path_579" data-name="Path 579" d="M119.2,297.772c0-.226-.157-.36-.433-.36a.96.96,0,0,0-.229.022v.724a.869.869,0,0,0,.186.014C119.013,298.172,119.2,298.024,119.2,297.772Z" transform="translate(-71.648 -289.025)" fill="#fff"/>
    <path id="Path_580" data-name="Path 580" d="M194.055,297.681a1.142,1.142,0,0,0-.251.022v1.6a1.007,1.007,0,0,0,.193.011.76.76,0,0,0,.83-.859A.7.7,0,0,0,194.055,297.681Z" transform="translate(-144.796 -289.287)" fill="#fff"/>
    <path id="Path_581" data-name="Path 581" d="M52.438,0H46.977A1.449,1.449,0,0,0,45.53,1.447V6.8h-.141a.583.583,0,0,0-.583.583v3.536a.583.583,0,0,0,.583.583h.141v.648A1.449,1.449,0,0,0,46.977,13.6h7.451a1.449,1.449,0,0,0,1.447-1.447V3.425Zm-6.1,8.019a4.571,4.571,0,0,1,.749-.051,1.176,1.176,0,0,1,.75.2.717.717,0,0,1,.262.568.784.784,0,0,1-.226.582,1.137,1.137,0,0,1-.8.258,1.436,1.436,0,0,1-.189-.011v.877h-.549Zm8.092,4.69H46.977a.561.561,0,0,1-.56-.561V11.5h6.946a.583.583,0,0,0,.583-.583V7.381a.583.583,0,0,0-.583-.583H46.417V1.447a.561.561,0,0,1,.56-.56L52.106.882v1.9a1,1,0,0,0,1,1l1.857-.005.021,8.373A.561.561,0,0,1,54.428,12.709Zm-5.977-2.282V8.019a5,5,0,0,1,.75-.051,1.579,1.579,0,0,1,1,.262,1.085,1.085,0,0,1,.415.924,1.243,1.243,0,0,1-.408.993,1.76,1.76,0,0,1-1.131.316A4.8,4.8,0,0,1,48.451,10.428ZM52.422,9v.451h-.881v.986h-.557V7.987h1.5v.455h-.942V9Z" fill="#fff"/>
  </g>
</svg>
