<svg xmlns="http://www.w3.org/2000/svg" xmlns:xlink="http://www.w3.org/1999/xlink" width="295" height="155" viewBox="0 0 295 155">
  <defs>
    <clipPath id="clip-path">
      <path id="Combined_Shape" data-name="Combined Shape" d="M77.5,155a78.072,78.072,0,0,1-15.619-1.575,77.076,77.076,0,0,1-27.712-11.661,77.726,77.726,0,0,1-28.079-34.1A77.108,77.108,0,0,1,1.575,93.119a78.256,78.256,0,0,1,0-31.238A77.076,77.076,0,0,1,13.236,34.169,77.726,77.726,0,0,1,47.333,6.09,77.108,77.108,0,0,1,61.881,1.575a78.256,78.256,0,0,1,31.238,0,77.076,77.076,0,0,1,27.712,11.661,77.725,77.725,0,0,1,28.079,34.1,77.108,77.108,0,0,1,4.516,14.548,78.256,78.256,0,0,1,0,31.238,77.076,77.076,0,0,1-11.661,27.712,77.725,77.725,0,0,1-34.1,28.079,77.108,77.108,0,0,1-14.548,4.516A78.072,78.072,0,0,1,77.5,155Zm0-126.583a48.93,48.93,0,1,0,19.105,3.857A48.776,48.776,0,0,0,77.5,28.417Z" transform="translate(0.481 0.769)" fill="#e1e4e8"/>
    </clipPath>
    <clipPath id="clip-path-2">
      <path id="Mask" d="M26.848,0l-.043,89.269L0,180.961s86.314-17.192,106.184-47.9,0-113,0-113Z" transform="translate(0.176)" fill="none"/>
    </clipPath>
  </defs>
  <g id="Group_499" data-name="Group 499" transform="translate(-301 -1208)">
    <g id="Group_498" data-name="Group 498">
      <g id="chart_1" data-name="chart 1" transform="translate(366.874 1213.71)">
        <g id="_1" data-name="1" transform="translate(6.645 -6.478)">
          <path id="Combined_Shape-2" data-name="Combined Shape" d="M77.5,155a78.072,78.072,0,0,1-15.619-1.575,77.076,77.076,0,0,1-27.712-11.661,77.726,77.726,0,0,1-28.079-34.1A77.108,77.108,0,0,1,1.575,93.119a78.256,78.256,0,0,1,0-31.238A77.076,77.076,0,0,1,13.236,34.169,77.726,77.726,0,0,1,47.333,6.09,77.108,77.108,0,0,1,61.881,1.575a78.256,78.256,0,0,1,31.238,0,77.076,77.076,0,0,1,27.712,11.661,77.725,77.725,0,0,1,28.079,34.1,77.108,77.108,0,0,1,4.516,14.548,78.256,78.256,0,0,1,0,31.238,77.076,77.076,0,0,1-11.661,27.712,77.725,77.725,0,0,1-34.1,28.079,77.108,77.108,0,0,1-14.548,4.516A78.072,78.072,0,0,1,77.5,155Zm0-126.583a48.93,48.93,0,1,0,19.105,3.857A48.776,48.776,0,0,0,77.5,28.417Z" transform="translate(0.481 0.769)" fill="#e1e4e8"/>
          <g id="_1-2" data-name="1" clip-path="url(#clip-path)">
            <g id="_1-3" data-name="1" transform="translate(51 -11)">
              <path id="Mask-2" data-name="Mask" d="M26.848,0l-.043,89.269L0,180.961s86.314-17.192,106.184-47.9,0-113,0-113Z" transform="translate(0.176)" fill="none"/>
              <g id="_1-4" data-name="1" clip-path="url(#clip-path-2)">
                <g id="Color_-_1" data-name="Color - 1" transform="translate(-51 12)">
                  <rect id="Rectangle" width="155" height="155" fill="#00b69b"/>
                </g>
              </g>
            </g>
            <circle id="Inner_Round" data-name="Inner Round" cx="54.25" cy="54.25" r="54.25" transform="translate(23.731 24.019)" fill="#fff" opacity="0.3"/>
          </g>
        </g>
      </g>
      <line id="Line_297" data-name="Line 297" x2="74" transform="translate(521.5 1339.5)" fill="none" stroke="#00b69b" stroke-width="1"/>
      <line id="Line_318" data-name="Line 318" x2="74" transform="translate(301.5 1240.5)" fill="none" stroke="#dcdcdc" stroke-width="1"/>
      <text id="_500" data-name="500" transform="translate(451 1301)" fill="#dcdcdc" font-size="32" font-family="NunitoSans-Black, Nunito Sans" font-weight="800"><tspan x="-28.8" y="0">500</tspan></text>
      <text id="_291" data-name="291" transform="translate(576 1333)" fill="#dcdcdc" font-size="22" font-family="NunitoSans-Black, Nunito Sans" font-weight="800"><tspan x="-19.811" y="0">291</tspan></text>
      <text id="_209" data-name="209" transform="translate(321 1234)" fill="#dcdcdc" font-size="22" font-family="NunitoSans-Black, Nunito Sans" font-weight="800"><tspan x="-19.811" y="0">209</tspan></text>
      <text id="TOTAL" transform="translate(451 1273)" fill="#00b69b" font-size="14" font-family="NunitoSans-Black, Nunito Sans" font-weight="800"><tspan x="-22.561" y="0">TOTAL</tspan></text>
      <text id="Delivered" transform="translate(561 1356)" fill="#e8e8e8" font-size="9" font-family="NunitoSans-Regular, Nunito Sans"><tspan x="0" y="0">Scanned</tspan></text>
      <text id="Delivered-2" data-name="Delivered" transform="translate(301 1257)" fill="#e8e8e8" font-size="9" font-family="NunitoSans-Regular, Nunito Sans"><tspan x="0" y="0">Not Scanned</tspan></text>
      <circle id="Ellipse_19" data-name="Ellipse 19" cx="4.5" cy="4.5" r="4.5" transform="translate(517 1335)" fill="#00b69b"/>
      <circle id="Ellipse_20" data-name="Ellipse 20" cx="4.5" cy="4.5" r="4.5" transform="translate(371 1236)" fill="#dcdcdc"/>
    </g>
  </g>
</svg>
