<svg id="Capa_1" enable-background="new 0 0 512 512" height="512" viewBox="0 0 512 512" width="512" xmlns="http://www.w3.org/2000/svg"><g><path d="m0 456.66c0 30.51 24.83 55.34 55.34 55.34h401.32c30.51 0 55.34-24.83 55.34-55.34v-185.66h-512zm341.64-56.66h47.58c6.49 0 11.78-5.29 11.78-11.78v-47.58c0-19.843 30-19.85 30 0v47.58c0 23.04-18.74 41.78-41.78 41.78h-47.58c-19.844 0-19.85-30 0-30zm-260.64-59.36c0-19.843 30-19.85 30 0v47.58c0 6.49 5.29 11.78 11.78 11.78h47.58c19.844 0 19.85 30 0 30h-47.58c-23.04 0-41.78-18.74-41.78-41.78z"/><path d="m456.66 0c-105.419 0 236.053 0-401.32 0-30.51 0-55.34 24.83-55.34 55.34v185.66h512v-185.66c0-30.51-24.83-55.34-55.34-55.34zm-286.3 110h-47.58c-6.49 0-11.78 5.29-11.78 11.78v47.58c0 19.843-30 19.85-30 0v-47.58c0-23.04 18.74-41.78 41.78-41.78h47.58c19.844 0 19.85 30 0 30zm260.64 59.36c0 19.843-30 19.85-30 0v-47.58c0-6.49-5.29-11.78-11.78-11.78h-47.58c-19.844 0-19.85-30 0-30h47.58c23.04 0 41.78 18.74 41.78 41.78z"/></g></svg>